<svg width="14" height="8" viewBox="0 0 14 8" fill="none" xmlns="http://www.w3.org/2000/svg">
<path fill-rule="evenodd" clip-rule="evenodd" d="M8.53838 8.00002C7.12361 7.98464 5.89776 7.25298 5.24609 6.51515C5.37677 6.35882 5.5094 6.15136 5.64472 6.05688C6.4267 7.03993 7.22691 7.64195 8.53838 8.00002Z" fill="#1A1C1E"/>
<path fill-rule="evenodd" clip-rule="evenodd" d="M5.06727 1.75976C3.59192 0.843269 2.2789 1.62053 1.89062 2.04581C3.05042 1.52668 4.03609 1.68905 5.18932 2.33394C6.00682 1.29107 6.31747 0.75973 7.84944 0.115723C6.70144 0.166021 5.7001 0.659459 5.06727 1.75976Z" fill="#1B1D1F"/>
<path fill-rule="evenodd" clip-rule="evenodd" d="M2.83358 6.00668C1.96296 5.88921 1.97921 4.97027 2.12739 4.49243C1.57601 5.07528 1.6165 6.00923 2.26883 6.48539C3.09435 7.08803 4.68019 6.77775 5.27176 5.6021C5.12874 5.32918 4.6607 4.92908 4.42502 4.71473C4.20186 5.31609 3.65104 6.11697 2.83358 6.00668Z" fill="#1B1D1F"/>
<path fill-rule="evenodd" clip-rule="evenodd" d="M12.0775 3.52577C12.3353 5.07501 10.9569 5.81411 10.5491 5.98268C12.513 5.96767 13.6754 4.42531 13.2739 2.57621C12.8847 0.783352 10.8671 -0.269787 8.94723 0.0601803C7.73992 0.267681 6.33262 1.00208 5.44922 2.49774C5.88256 2.75736 6.23429 3.0741 6.61538 3.43873C7.84709 1.05752 11.4523 1.17488 12.0775 3.52577Z" fill="#1B1D1F"/>
<path fill-rule="evenodd" clip-rule="evenodd" d="M10.7877 6.32629C7.65637 6.6576 6.75691 2.5253 3.61925 2.12018C3.11808 2.05544 2.58365 2.08624 2.14795 2.26211C-1.08992 3.56922 -0.310633 7.46388 2.12946 7.74271C2.99481 7.84156 4.12325 7.58303 4.7478 6.60475C4.11002 7.06849 3.04771 7.25875 2.30656 6.85224C0.794926 6.02315 1.50215 3.4142 3.39805 3.89795C4.81651 4.25992 5.99376 6.24078 7.23737 7.10235C8.98976 8.31648 10.9775 8.13861 12.3753 7.3058C13.8938 6.40112 14.4468 4.3833 13.609 2.69909C13.8716 4.58489 13.1765 6.07352 10.7877 6.32629Z" fill="#1A1C1E"/>
</svg>
