<svg width="327" height="327" viewBox="0 0 327 327" fill="none" xmlns="http://www.w3.org/2000/svg">
<path d="M34.061 157.49L35.1467 161.178C35.2329 161.472 35.392 161.74 35.6092 161.956C35.8264 162.172 36.0948 162.33 36.3893 162.414L40.0713 163.5L36.3893 164.586C36.0948 164.67 35.8264 164.828 35.6092 165.044C35.392 165.26 35.2329 165.528 35.1467 165.822L34.061 169.51L32.9819 165.822C32.8947 165.528 32.7352 165.261 32.5181 165.045C32.301 164.829 32.0333 164.671 31.7393 164.586L28.0508 163.5L31.7393 162.414C32.0333 162.329 32.301 162.171 32.5181 161.955C32.7352 161.739 32.8947 161.472 32.9819 161.178L34.061 157.49Z" fill="#E0E0E0"/>
<path d="M168.569 289.755L169.648 293.437C169.735 293.731 169.894 293.999 170.111 294.216C170.328 294.433 170.596 294.593 170.891 294.679L174.579 295.758L170.891 296.844C170.596 296.931 170.328 297.09 170.111 297.307C169.894 297.524 169.735 297.792 169.648 298.087L168.569 301.769L167.483 298.087C167.397 297.792 167.239 297.523 167.021 297.306C166.804 297.089 166.536 296.93 166.241 296.844L162.559 295.758L166.241 294.679C166.536 294.594 166.804 294.435 167.021 294.218C167.239 294 167.397 293.732 167.483 293.437L168.569 289.755Z" fill="#E0E0E0"/>
<path d="M43.6749 187.783L44.3943 190.216C44.4511 190.411 44.5556 190.588 44.6984 190.732C44.8412 190.876 45.0176 190.982 45.2118 191.04L47.6512 191.753L45.2118 192.472C45.0186 192.531 44.8429 192.636 44.7003 192.778C44.5577 192.921 44.4525 193.097 44.3943 193.29L43.6749 195.729L42.962 193.29C42.9036 193.096 42.7977 192.919 42.6538 192.776C42.5099 192.634 42.3326 192.529 42.138 192.472L39.7051 191.753L42.138 191.04C42.3336 190.983 42.5117 190.878 42.6557 190.734C42.7998 190.59 42.9051 190.412 42.962 190.216L43.6749 187.783Z" fill="#E0E0E0"/>
<path d="M269.534 169.451L270.619 173.133C270.705 173.427 270.863 173.695 271.079 173.912C271.295 174.129 271.562 174.289 271.855 174.376L275.544 175.455L271.855 176.541C271.561 176.627 271.294 176.786 271.078 177.003C270.862 177.221 270.704 177.489 270.619 177.783L269.534 181.465L268.448 177.783C268.363 177.489 268.206 177.221 267.99 177.003C267.774 176.786 267.506 176.627 267.212 176.541L263.523 175.455L267.212 174.376C267.505 174.289 267.772 174.129 267.988 173.912C268.204 173.695 268.362 173.427 268.448 173.133L269.534 169.451Z" fill="#E0E0E0"/>
<path d="M244.002 43.1641L245.087 46.8526C245.174 47.147 245.334 47.415 245.551 47.6321C245.768 47.8491 246.036 48.0084 246.33 48.0952L250.012 49.1743L246.33 50.26C246.035 50.3457 245.766 50.5046 245.549 50.7218C245.332 50.939 245.173 51.2076 245.087 51.5026L244.002 55.1846L242.923 51.5026C242.836 51.2081 242.677 50.9402 242.46 50.7231C242.242 50.5061 241.974 50.3468 241.68 50.26L237.998 49.1743L241.68 48.0952C241.974 48.0073 242.241 47.8477 242.458 47.6308C242.675 47.4139 242.835 47.1465 242.923 46.8526L244.002 43.1641Z" fill="#E0E0E0"/>
<path d="M232.171 85.3143L233.342 89.2972C233.433 89.6177 233.605 89.9096 233.841 90.1453C234.076 90.381 234.368 90.5528 234.689 90.6444L238.672 91.8151L234.689 92.9857C234.373 93.0738 234.084 93.2396 233.849 93.4681C233.613 93.6966 233.439 93.9805 233.342 94.2937L232.171 98.3093L231 94.3265C230.903 94.0139 230.73 93.7306 230.496 93.5021C230.262 93.2737 229.974 93.1074 229.66 93.0185L225.631 91.8151L229.614 90.6444C229.933 90.5519 230.224 90.3797 230.458 90.144C230.693 89.9083 230.863 89.6169 230.954 89.2972L232.171 85.3143Z" fill="#E0E0E0"/>
<path d="M247.978 180.072L248.691 182.505C248.749 182.7 248.855 182.878 248.999 183.022C249.143 183.166 249.32 183.271 249.515 183.329L251.948 184.042L249.515 184.755C249.32 184.812 249.141 184.917 248.997 185.061C248.853 185.205 248.748 185.383 248.691 185.579L247.978 188.012L247.259 185.579C247.203 185.384 247.099 185.206 246.956 185.062C246.813 184.918 246.636 184.812 246.441 184.755L244.002 184.042L246.441 183.329C246.636 183.271 246.812 183.165 246.955 183.021C247.098 182.877 247.202 182.7 247.259 182.505L247.978 180.072Z" fill="#E0E0E0"/>
<path d="M51.1834 115.98L51.8962 118.413C51.9531 118.609 52.0584 118.787 52.2025 118.931C52.3465 119.075 52.5246 119.18 52.7203 119.237L55.1531 119.95L52.7203 120.67C52.5251 120.725 52.3472 120.829 52.2031 120.972C52.0591 121.115 51.9535 121.292 51.8962 121.487L51.1834 123.926L50.464 121.487C50.4078 121.293 50.3034 121.116 50.1605 120.973C50.0175 120.83 49.8407 120.726 49.6465 120.67L47.207 119.95L49.6465 119.237C49.8411 119.18 50.0182 119.074 50.1611 118.93C50.3041 118.786 50.4082 118.608 50.464 118.413L51.1834 115.98Z" fill="#E0E0E0"/>
<path d="M128.734 18.5475L129.447 20.9869C129.505 21.181 129.611 21.3575 129.755 21.5003C129.899 21.6431 130.076 21.7476 130.271 21.8044L132.704 22.5238L130.271 23.2367C130.075 23.2935 129.897 23.3989 129.753 23.5429C129.609 23.687 129.504 23.8651 129.447 24.0607L128.734 26.4936L128.015 24.0607C127.959 23.8656 127.855 23.6877 127.712 23.5436C127.569 23.3995 127.392 23.2939 127.197 23.2367L124.758 22.5238L127.197 21.8044C127.391 21.7472 127.567 21.6424 127.71 21.4996C127.853 21.3568 127.958 21.1806 128.015 20.9869L128.734 18.5475Z" fill="#E0E0E0"/>
<path d="M83.3791 39.9268L84.6087 44.1058C84.7055 44.4405 84.885 44.7453 85.1308 44.9922C85.3766 45.2391 85.6806 45.4201 86.0148 45.5185L90.1938 46.7414L86.0148 47.971C85.6805 48.0671 85.3761 48.2465 85.1302 48.4925C84.8842 48.7384 84.7048 49.0428 84.6087 49.3771L83.3791 53.5561L82.1496 49.3771C82.0535 49.0428 81.8741 48.7384 81.6281 48.4925C81.3822 48.2465 81.0778 48.0671 80.7435 47.971L76.5645 46.7414L80.7435 45.5185C81.0777 45.4201 81.3817 45.2391 81.6275 44.9922C81.8732 44.7453 82.0528 44.4405 82.1496 44.1058L83.3791 39.9268Z" fill="#E0E0E0"/>
<path d="M89.4678 85.8311L90.1872 88.2705C90.2444 88.4641 90.3492 88.6404 90.492 88.7832C90.6348 88.926 90.8111 89.0308 91.0047 89.088L93.4442 89.8074L91.0047 90.5202C90.8106 90.5786 90.6341 90.6845 90.4914 90.8285C90.3486 90.9724 90.244 91.1497 90.1872 91.3443L89.4678 93.7772L88.755 91.3443C88.6981 91.1486 88.5928 90.9705 88.4487 90.8265C88.3046 90.6824 88.1265 90.5771 87.9309 90.5202L85.498 89.8074L87.9309 89.088C88.1261 89.0322 88.304 88.9281 88.448 88.7851C88.5921 88.6422 88.6977 88.4652 88.755 88.2705L89.4678 85.8311Z" fill="#E0E0E0"/>
<path d="M288.774 230.13C263.078 224.675 242.994 237.886 242.994 237.886C263 247.611 288.774 230.13 288.774 230.13Z" fill="#E0E0E0"/>
<path d="M215.717 228.835C215.717 244.956 226.527 256.113 226.527 256.113C229.935 243.118 215.717 228.835 215.717 228.835Z" fill="#E0E0E0"/>
<path d="M232.648 254.406C251.654 258.134 267.31 248.049 267.31 248.049C252.759 241.064 232.648 254.406 232.648 254.406Z" fill="#E0E0E0"/>
<path d="M253.675 221.052C253.381 220.843 245.101 232.17 235.18 246.283C225.259 260.397 217.456 272.064 217.783 272.286C218.11 272.509 226.357 261.168 236.278 247.049C246.2 232.929 253.969 221.274 253.675 221.052Z" fill="#E0E0E0"/>
<path d="M281.946 190.425C281.946 190.425 253.687 200.392 250.09 226.938C250.09 226.938 274.314 218.75 281.946 190.425Z" fill="#E0E0E0"/>
<path d="M239.411 193.506C239.411 193.506 222.662 218.358 235.585 241.797C235.585 241.797 250.169 220.797 239.411 193.506Z" fill="#E0E0E0"/>
<path d="M73.0207 205.356C63.8255 230.345 74.1652 252.392 74.1652 252.392C86.8201 233.72 73.0207 205.356 73.0207 205.356Z" fill="#E0E0E0"/>
<path d="M62.582 282.463C78.7489 284.81 91.515 275.569 91.515 275.569C78.9713 270.266 62.582 282.463 62.582 282.463Z" fill="#E0E0E0"/>
<path d="M90.6918 269.18C97.1861 250.659 89.3315 233.504 89.3315 233.504C80.2213 247.068 90.6918 269.18 90.6918 269.18Z" fill="#E0E0E0"/>
<path d="M60.2935 243.249C60.045 243.517 70.1755 253.464 82.9285 265.485C95.6815 277.505 106.217 287.008 106.472 286.746C106.728 286.485 96.5905 276.531 83.8375 264.51C71.0845 252.49 60.5421 242.987 60.2935 243.249Z" fill="#E0E0E0"/>
<path d="M33.6484 210.444C33.6484 210.444 39.5344 240.24 65.6421 247.722C65.6421 247.696 60.9595 222.203 33.6484 210.444Z" fill="#E0E0E0"/>
<path d="M30.5684 253.562C30.5684 253.562 53.066 273.967 78.4673 264.406C78.4804 264.406 59.5144 246.728 30.5684 253.562Z" fill="#E0E0E0"/>
<path d="M99.9441 95.8568C88.8261 118.636 96.5171 140.505 96.5171 140.505C110.284 124.07 99.9441 95.8568 99.9441 95.8568Z" fill="#E0E0E0"/>
<path d="M82.666 167.895C97.7473 171.668 110.723 164.141 110.723 164.141C99.3496 157.921 82.666 167.895 82.666 167.895Z" fill="#E0E0E0"/>
<path d="M110.527 158.013C118.447 141.1 112.659 124.103 112.659 124.103C102.764 136.078 110.527 158.013 110.527 158.013Z" fill="#E0E0E0"/>
<path d="M84.2558 130.545C83.9942 130.774 92.6401 141.166 103.555 153.755C114.471 166.345 123.542 176.364 123.829 176.135C124.117 175.906 115.452 165.521 104.53 152.931C93.608 140.342 84.5174 130.323 84.2558 130.545Z" fill="#E0E0E0"/>
<path d="M62.1758 96.9294C62.1758 96.9294 64.903 125.705 88.8917 135.273C88.8917 135.273 86.9035 110.69 62.1758 96.9294Z" fill="#E0E0E0"/>
<path d="M55.127 137.464C55.127 137.464 74.4723 158.922 99.4093 152.323C99.4093 152.323 83.1836 133.769 55.127 137.464Z" fill="#E0E0E0"/>
<path d="M291.298 145.842C267.852 136.222 246.525 145.28 246.525 145.28C263.811 157.941 291.298 145.842 291.298 145.842Z" fill="#E0E0E0"/>
<path d="M218.305 133.181C215.506 148.478 223.844 160.943 223.844 160.943C229.325 149.197 218.305 133.181 218.305 133.181Z" fill="#E0E0E0"/>
<path d="M229.953 160.38C247.336 167.208 263.922 160.341 263.922 160.341C251.345 151.205 229.953 160.38 229.953 160.38Z" fill="#E0E0E0"/>
<path d="M255.675 132.383C255.433 132.134 245.616 141.427 233.753 153.128C221.889 164.828 212.472 174.52 212.714 174.768C212.956 175.017 222.772 165.73 234.636 154.024C246.499 142.317 255.917 132.631 255.675 132.383Z" fill="#E0E0E0"/>
<path d="M287.807 108.198C287.807 108.198 259.267 112.776 251.262 137.314C251.262 137.34 275.662 133.756 287.807 108.198Z" fill="#E0E0E0"/>
<path d="M246.913 103.757C246.913 103.757 226.717 124.437 234.918 148.922C234.918 148.922 252.393 131.519 246.913 103.757Z" fill="#E0E0E0"/>
<path d="M166.115 48.1148C166.017 48.1148 165.945 40.5938 165.945 31.3266C165.945 22.0594 166.017 14.5319 166.115 14.5319C166.213 14.5319 166.285 22.0529 166.285 31.3266C166.285 40.6003 166.227 48.1148 166.115 48.1148Z" fill="#263238"/>
<path d="M134.384 57.1269C134.319 57.1923 129.617 52.5947 123.881 46.8657C118.146 41.1366 113.554 36.4017 113.62 36.3624C113.685 36.3232 118.387 40.8881 124.123 46.6237C129.859 52.3593 134.456 57.0615 134.384 57.1269Z" fill="#263238"/>
<path d="M214.308 36.6697C214.374 36.7351 209.227 42.0718 202.804 48.5922C196.382 55.1125 191.124 60.3642 191.032 60.2726C190.941 60.181 196.114 54.8706 202.536 48.3502C208.959 41.8298 214.243 36.624 214.308 36.6697Z" fill="#263238"/>
<path d="M146.966 47.742C145.827 46.0583 144.783 44.3115 143.84 42.51C142.794 40.7614 141.847 38.9557 141.002 37.1014C142.144 38.7852 143.189 40.532 144.135 42.3334C145.18 44.0812 146.126 45.887 146.966 47.742Z" fill="#263238"/>
<path d="M191.027 35.0413C190.626 35.7178 190.189 36.3727 189.719 37.0033C188.908 38.2066 187.822 39.907 186.743 41.8363C185.664 43.7656 184.781 45.5837 184.173 46.9048C183.88 47.6359 183.55 48.3519 183.186 49.0499C183.21 48.8374 183.267 48.63 183.356 48.4352C183.486 48.0493 183.696 47.4934 183.97 46.8198C184.702 45.0599 185.534 43.3436 186.462 41.6794C187.391 40.0178 188.417 38.4127 189.536 36.8725C189.968 36.2773 190.334 35.813 190.595 35.4991C190.719 35.3288 190.864 35.175 191.027 35.0413Z" fill="#263238"/>
<path d="M217.167 70.3834C215.493 71.0865 213.778 71.6892 212.033 72.1885C210.322 72.7921 208.574 73.288 206.801 73.673C208.472 72.9599 210.186 72.3548 211.935 71.8615C213.645 71.257 215.393 70.7633 217.167 70.3834Z" fill="#263238"/>
<path d="M113.645 74.2225C111.942 74.0905 110.249 73.848 108.577 73.4965C106.884 73.2548 105.208 72.9031 103.561 72.4436C105.267 72.5671 106.962 72.8074 108.636 73.163C110.328 73.3997 112.002 73.7537 113.645 74.2225Z" fill="#263238"/>
<path d="M115.758 52.8367L116.726 56.1067C116.803 56.3688 116.944 56.6074 117.137 56.8006C117.33 56.9937 117.569 57.1352 117.831 57.2119L121.101 58.1798L117.831 59.1478C117.569 59.2245 117.33 59.366 117.137 59.5591C116.944 59.7523 116.803 59.9909 116.726 60.253L115.758 63.523L114.79 60.253C114.712 59.9907 114.569 59.7521 114.375 59.5591C114.18 59.3661 113.941 59.2247 113.678 59.1478L110.408 58.1798L113.678 57.2119C113.941 57.135 114.18 56.9936 114.375 56.8006C114.569 56.6076 114.712 56.369 114.79 56.1067L115.758 52.8367Z" fill="#2CD2D2"/>
<path d="M186.18 18.6913L187.141 21.9613C187.218 22.2251 187.36 22.4653 187.555 22.6596C187.749 22.8539 187.989 22.9961 188.253 23.0731L191.523 24.041L188.253 25.0024C187.989 25.0793 187.749 25.2215 187.555 25.4159C187.36 25.6102 187.218 25.8504 187.141 26.1142L186.18 29.3842L185.212 26.1142C185.135 25.8504 184.993 25.6102 184.798 25.4159C184.604 25.2215 184.364 25.0793 184.1 25.0024L180.83 24.041L184.1 23.0731C184.364 22.9961 184.604 22.8539 184.798 22.6596C184.993 22.4653 185.135 22.2251 185.212 21.9613L186.18 18.6913Z" fill="#2CD2D2"/>
<path d="M116.642 83.228L117.067 84.6734C117.099 84.789 117.16 84.8944 117.245 84.9792C117.33 85.0641 117.435 85.1254 117.551 85.1573L118.996 85.5824L117.551 86.0075C117.435 86.0394 117.33 86.1008 117.245 86.1856C117.16 86.2704 117.099 86.3758 117.067 86.4915L116.642 87.9368L116.216 86.4915C116.182 86.377 116.12 86.2728 116.036 86.1883C115.951 86.1038 115.847 86.0417 115.732 86.0075L114.287 85.5824L115.732 85.1573C115.847 85.1232 115.951 85.0611 116.036 84.9766C116.12 84.8921 116.182 84.7879 116.216 84.6734L116.642 83.228Z" fill="#2CD2D2"/>
<path d="M150.681 26.6178L151.099 28.0566C151.135 28.1723 151.198 28.2775 151.283 28.363C151.369 28.4485 151.474 28.5117 151.59 28.5471L153.035 28.9722L151.59 29.3908C151.474 29.4261 151.369 29.4894 151.283 29.5749C151.198 29.6604 151.135 29.7656 151.099 29.8813L150.681 31.3266L150.255 29.8813C150.22 29.7656 150.157 29.6604 150.071 29.5749C149.986 29.4894 149.881 29.4261 149.765 29.3908L148.326 28.9722L149.765 28.5471C149.881 28.5117 149.986 28.4485 150.071 28.363C150.157 28.2775 150.22 28.1723 150.255 28.0566L150.681 26.6178Z" fill="#2CD2D2"/>
<path d="M210.137 55.6815L210.889 58.2387C210.952 58.4419 211.064 58.6268 211.214 58.7772C211.365 58.9276 211.549 59.0391 211.753 59.1019L214.31 59.854L211.753 60.5996C211.548 60.6637 211.362 60.7771 211.212 60.93C211.061 61.0828 210.95 61.2703 210.889 61.476L210.137 64.0331L209.385 61.476C209.326 61.2711 209.215 61.0846 209.064 60.9337C208.913 60.7828 208.727 60.6724 208.522 60.6127L205.965 59.8671L208.522 59.115C208.727 59.0553 208.913 58.9449 209.064 58.794C209.215 58.6431 209.326 58.4566 209.385 58.2517L210.137 55.6815Z" fill="#2CD2D2"/>
<path d="M211.608 87.1847L211.981 88.46C212.012 88.5616 212.068 88.654 212.143 88.7293C212.218 88.8045 212.311 88.8602 212.412 88.8916L213.687 89.271L212.412 89.6437C212.311 89.6752 212.218 89.7309 212.143 89.8061C212.068 89.8813 212.012 89.9737 211.981 90.0754L211.608 91.3834L211.228 90.0754C211.197 89.9737 211.141 89.8813 211.066 89.8061C210.991 89.7309 210.898 89.6752 210.797 89.6437L209.521 89.271L210.797 88.8916C210.898 88.8602 210.991 88.8045 211.066 88.7293C211.141 88.654 211.197 88.5616 211.228 88.46L211.608 87.1847Z" fill="#2CD2D2"/>
<path d="M181.811 276.328C181.811 276.328 179.247 273.457 182.138 268.84C182.138 268.84 177.305 258.245 177.278 258.18C177.252 258.114 170.019 266.381 178.469 273.941L181.811 276.328Z" fill="#2CD2D2"/>
<path opacity="0.3" d="M181.811 276.328C181.811 276.328 179.247 273.457 182.138 268.84C182.138 268.84 177.305 258.245 177.278 258.18C177.252 258.114 170.019 266.381 178.469 273.941L181.811 276.328Z" fill="black"/>
<path d="M201.974 309.44C200.365 309.283 153.611 209.476 143.709 176.024C133.808 142.572 141.381 89.7288 146.188 81.096C150.047 74.1963 154.376 74.4513 154.376 74.4513C154.376 74.4513 155.455 64.8179 159.837 61.9468C160.901 61.2482 162.141 60.8641 163.413 60.8387C164.686 60.8132 165.94 61.1474 167.031 61.803C173.218 54.694 181.275 59.7102 181.792 66.9696C181.792 66.9696 188.646 59.4943 194.741 71.6914C200.836 83.8885 206.925 123.279 206.925 123.279C206.925 123.279 206.925 106.347 218.291 107.014C218.636 107.036 218.965 107.168 219.23 107.391C219.495 107.613 219.681 107.914 219.763 108.25L221.928 122.638C221.928 122.638 225.302 134.489 227.585 138.426C229.867 142.363 233.961 180.112 232.444 183.552C230.927 186.992 219.089 214.198 217.971 219.705C216.853 225.211 217.592 229.155 219.874 232.301C222.157 235.447 252.241 277.172 252.241 277.172C252.241 277.172 237.774 312.985 201.974 309.44Z" fill="#E8AA89"/>
<path d="M211.457 165.096C211.341 164.951 211.236 164.798 211.143 164.638C210.867 164.184 210.623 163.712 210.41 163.225C209.676 161.409 209.262 159.48 209.187 157.522C209.011 155.05 209.318 152.114 209.54 148.877C209.673 147.186 209.684 145.487 209.573 143.795C209.397 142.049 209.155 140.224 208.919 138.367C208.684 136.509 208.331 134.711 207.905 132.997C207.45 131.349 207.155 129.66 207.023 127.955C206.765 125.068 206.864 122.159 207.317 119.296C207.62 117.368 208.145 115.48 208.88 113.672C209.072 113.181 209.29 112.7 209.534 112.233C209.607 112.061 209.697 111.897 209.802 111.742C209.747 111.919 209.679 112.092 209.599 112.259C209.469 112.599 209.213 113.07 208.998 113.724C208.313 115.536 207.828 117.418 207.552 119.335C207.135 122.178 207.056 125.061 207.317 127.922C207.457 129.613 207.757 131.286 208.213 132.919C208.649 134.701 208.994 136.504 209.246 138.321C209.501 140.185 209.743 141.996 209.9 143.769C210.013 145.477 209.998 147.191 209.854 148.896C209.612 152.166 209.285 155.057 209.429 157.509C209.482 159.445 209.856 161.359 210.535 163.173C210.796 163.827 211.032 164.285 211.189 164.605C211.293 164.76 211.383 164.924 211.457 165.096Z" fill="#6F4439"/>
<path d="M187.332 181.446C187.332 181.336 187.345 181.226 187.371 181.119C187.424 180.87 187.482 180.569 187.554 180.203C187.626 179.837 187.744 179.314 187.901 178.758C188.058 178.202 188.202 177.561 188.444 176.868C188.686 176.175 188.908 175.416 189.229 174.618C189.549 173.82 189.883 172.976 190.275 172.094C191.149 170.192 192.152 168.352 193.277 166.587C194.423 164.836 195.686 163.165 197.057 161.584C197.711 160.877 198.319 160.184 198.941 159.622C199.562 159.059 200.131 158.471 200.674 157.993C201.216 157.516 201.733 157.097 202.184 156.731C202.563 156.412 202.958 156.113 203.368 155.835L204.133 155.299C204.221 155.232 204.315 155.175 204.415 155.129C204.415 155.129 204.343 155.214 204.173 155.351L203.447 155.94C203.126 156.188 202.734 156.496 202.302 156.875C201.87 157.254 201.36 157.666 200.837 158.183C200.314 158.7 199.725 159.216 199.137 159.838C198.548 160.459 197.94 161.146 197.292 161.8C195.954 163.378 194.716 165.038 193.584 166.77C192.465 168.518 191.463 170.338 190.582 172.218C190.19 173.088 189.804 173.918 189.51 174.716C189.216 175.514 188.928 176.253 188.692 176.94C188.457 177.626 188.274 178.248 188.104 178.804C187.934 179.359 187.803 179.83 187.705 180.223L187.463 181.132C187.436 181.243 187.392 181.349 187.332 181.446Z" fill="#6F4439"/>
<path d="M217.944 221.582C217.783 221.847 217.599 222.099 217.395 222.334C217.022 222.805 216.46 223.465 215.74 224.25C213.846 226.298 211.774 228.174 209.547 229.855C207.32 231.536 204.945 233.011 202.451 234.263C201.496 234.74 200.712 235.1 200.156 235.322C199.875 235.458 199.582 235.563 199.279 235.636C199.538 235.466 199.812 235.319 200.097 235.198C200.633 234.943 201.405 234.544 202.347 234.047C204.789 232.741 207.129 231.249 209.344 229.587C211.55 227.909 213.629 226.07 215.564 224.086C216.303 223.321 216.872 222.693 217.29 222.249C217.485 222.005 217.704 221.781 217.944 221.582Z" fill="#6F4439"/>
<path d="M197.455 271.351C197.389 271.25 197.332 271.143 197.285 271.031C197.168 270.782 197.017 270.475 196.841 270.095L195.238 266.629C193.878 263.712 191.968 259.71 189.614 255.374C187.26 251.038 185.036 247.199 183.375 244.446L181.38 241.176L180.844 240.286C180.777 240.185 180.72 240.078 180.674 239.966C180.761 240.05 180.838 240.144 180.903 240.247L181.491 241.104C182.001 241.849 182.714 242.941 183.578 244.302C185.304 247.022 187.593 250.842 189.915 255.191C192.237 259.54 194.153 263.562 195.461 266.512C196.115 267.983 196.625 269.18 196.965 270.017C197.115 270.409 197.246 270.73 197.344 270.985C197.4 271.1 197.438 271.224 197.455 271.351Z" fill="#6F4439"/>
<path d="M199.084 139.302C197.848 139.771 196.575 140.137 195.278 140.394C194.005 140.758 192.703 141.012 191.387 141.153C192.625 140.684 193.901 140.319 195.2 140.061C196.47 139.697 197.77 139.443 199.084 139.302Z" fill="#6F4439"/>
<path d="M187.659 124.992C187.632 124.948 187.612 124.899 187.6 124.849L187.463 124.423C187.345 124.044 187.162 123.488 186.959 122.762C186.541 121.317 185.978 119.218 185.364 116.595C183.789 109.764 182.565 102.858 181.695 95.9025C180.674 87.7471 180.249 80.3046 180.472 74.9156C180.524 72.788 180.767 70.6693 181.198 68.5849C181.351 67.8168 181.597 67.0701 181.93 66.3613C181.927 66.4136 181.914 66.4647 181.891 66.5117C181.856 66.6295 181.81 66.7733 181.753 66.9434C181.67 67.1717 181.602 67.4055 181.551 67.6432C181.46 67.9617 181.385 68.2848 181.328 68.6111C180.948 70.6962 180.743 72.8094 180.714 74.9287C180.645 81.9271 181.082 88.9214 182.022 95.8567C183.042 103.992 184.415 111.298 185.586 116.543C186.174 119.159 186.698 121.278 187.077 122.73C187.26 123.436 187.404 123.992 187.515 124.404C187.554 124.58 187.594 124.724 187.62 124.842C187.646 124.96 187.698 124.992 187.659 124.992Z" fill="#6F4439"/>
<path d="M177.501 137.124C177.466 137.068 177.436 137.009 177.41 136.948L177.174 136.418L176.304 134.358C176.115 133.906 175.912 133.403 175.683 132.86C175.454 132.317 175.245 131.709 175.029 131.062C174.552 129.754 173.97 128.308 173.44 126.654C173.159 125.83 172.871 124.966 172.57 124.038C172.269 123.109 172.014 122.187 171.713 121.206C171.105 119.244 170.582 117.138 170 114.914C168.914 110.447 167.914 105.49 167.162 100.239C166.409 94.9869 166.05 89.938 165.854 85.3469C165.801 83.0448 165.723 80.8605 165.775 78.8069C165.775 77.7867 165.775 76.7991 165.821 75.8508C165.867 74.9025 165.906 73.9935 165.945 73.1237C165.997 71.3906 166.154 69.821 166.259 68.4476C166.311 67.7936 166.37 67.1396 166.416 66.5313C166.462 65.9231 166.547 65.4065 166.606 64.9225C166.717 63.9807 166.808 63.2352 166.874 62.7054L166.952 62.1234C166.957 62.0588 166.971 61.9951 166.992 61.9337C166.997 61.999 166.997 62.0646 166.992 62.1299C166.992 62.2803 166.992 62.47 166.946 62.712C166.9 63.2417 166.828 64.02 166.743 64.9356C166.699 65.4195 166.647 65.9558 166.586 66.5444C166.547 67.133 166.501 67.7739 166.455 68.4606C166.37 69.834 166.226 71.4036 166.187 73.1367C166.187 74 166.128 74.9091 166.089 75.8574C166.05 76.8057 166.089 77.8194 166.089 78.8069C166.05 80.8474 166.135 83.0252 166.2 85.3469C166.403 89.9249 166.802 94.9607 167.508 100.206C168.214 105.451 169.248 110.389 170.307 114.855C170.883 117.072 171.393 119.191 171.995 121.14C172.282 122.121 172.544 123.07 172.832 123.972C173.119 124.875 173.401 125.738 173.675 126.588C174.186 128.243 174.754 129.708 175.212 131.009L175.866 132.814C176.082 133.364 176.278 133.867 176.461 134.318L177.272 136.405L177.475 136.948C177.491 137.005 177.5 137.064 177.501 137.124Z" fill="#6F4439"/>
<path d="M158.084 141.12C158.062 141.063 158.047 141.004 158.038 140.944C158.005 140.8 157.973 140.623 157.927 140.407C157.842 139.91 157.718 139.217 157.554 138.341C157.234 136.549 156.809 133.946 156.331 130.722C155.854 127.497 155.344 123.652 154.86 119.368C154.376 115.084 154.003 110.362 153.748 105.392C153.314 96.9075 153.412 88.4041 154.042 79.9319C154.297 76.6619 154.559 74.0459 154.794 72.2539C154.906 71.371 154.997 70.6712 155.056 70.1676L155.134 69.6314C155.139 69.5688 155.152 69.5071 155.174 69.4482C155.182 69.5112 155.182 69.575 155.174 69.6379C155.174 69.7752 155.174 69.9584 155.128 70.1807C155.076 70.6843 155.01 71.3775 154.925 72.267C154.729 74.0786 154.507 76.7011 154.271 79.9515C153.719 88.4166 153.656 96.9066 154.081 105.379C154.337 110.336 154.735 115.052 155.167 119.335C155.599 123.619 156.102 127.465 156.56 130.689C157.018 133.913 157.404 136.516 157.678 138.321C157.816 139.204 157.914 139.897 157.992 140.394C157.992 140.617 158.045 140.793 158.064 140.937C158.078 140.997 158.085 141.059 158.084 141.12Z" fill="#6F4439"/>
<path d="M205.499 131.774L205.355 131.82L204.917 131.912L203.223 132.245C201.751 132.526 199.619 132.939 196.997 133.481C191.765 134.547 184.518 136.15 176.625 138.282C172.701 139.354 168.953 140.473 165.578 141.552C162.204 142.631 159.195 143.69 156.697 144.665C155.441 145.129 154.323 145.58 153.336 145.973C152.348 146.365 151.498 146.712 150.818 147.019L149.228 147.673L148.816 147.837L148.666 147.889C148.706 147.857 148.75 147.831 148.797 147.81L149.202 147.608L150.765 146.875C151.419 146.548 152.283 146.182 153.264 145.77C154.245 145.358 155.363 144.881 156.612 144.397C159.104 143.396 162.119 142.343 165.48 141.212C168.842 140.08 172.589 138.995 176.533 137.942C184.44 135.81 191.68 134.247 196.951 133.239C199.567 132.723 201.718 132.35 203.197 132.108L204.903 131.84L205.348 131.781C205.398 131.772 205.448 131.769 205.499 131.774Z" fill="#6F4439"/>
<path d="M224.119 237.879C224.119 237.879 230.731 241.064 232.824 245.296C234.917 249.527 234.57 252.627 234.57 252.627L234.027 256.231C232.872 260.355 230.825 264.175 228.03 267.421C220.254 276.05 209.722 281.711 198.234 283.437C195.379 283.892 192.47 283.892 189.614 283.437C184.69 282.606 181.184 280.573 178.797 276.59C177.744 275.066 174.762 269.245 174.703 268.33L175.802 270.292C179.026 274.798 181.688 275.818 185.775 276.766C189.863 277.715 194.389 277.283 198.574 276.276C208.387 273.897 217.166 268.404 223.596 260.619C226.212 257.46 228.403 253.817 228.998 249.769C228.972 249.782 230.267 243.177 224.119 237.879Z" fill="#2CD2D2"/>
<g opacity="0.2">
<path d="M209.718 141.722C209.568 135.836 205.735 128.374 206.971 122.631C205.055 125.077 204.977 128.517 205.559 131.552C206.141 134.587 207.305 137.543 207.573 140.636C207.841 143.73 207.187 146.954 207.037 150.119C206.886 153.284 207.377 156.705 209.522 159.033C208.835 153.101 209.888 148.379 209.718 141.722Z" fill="black"/>
</g>
<path d="M197.297 100.971C196.948 101.248 196.557 101.468 196.14 101.625C195.162 102.05 194.155 102.402 193.125 102.678C192.097 102.976 191.047 103.195 189.986 103.332C189.555 103.414 189.114 103.433 188.678 103.391C188.678 103.286 190.64 103.044 193.053 102.371C195.466 101.697 197.258 100.879 197.297 100.971Z" fill="#6F4439"/>
<path d="M194.387 84.6079C194.066 84.9589 193.682 85.2471 193.255 85.4581C191.24 86.6001 188.882 86.9785 186.611 86.5241C186.151 86.4524 185.709 86.2996 185.303 86.0729C186.844 86.4449 188.443 86.507 190.008 86.2556C191.573 86.0041 193.073 85.444 194.419 84.6079H194.387Z" fill="#6F4439"/>
<path d="M198.926 104.215C197.43 104.704 195.9 105.085 194.348 105.353C192.828 105.732 191.283 106.001 189.725 106.157C191.221 105.668 192.751 105.287 194.303 105.019C195.822 104.636 197.367 104.367 198.926 104.215Z" fill="#6F4439"/>
<g opacity="0.2">
<path d="M199.535 102.822C199.11 101.906 197.966 101.632 196.971 101.475L196.52 101.226C194.086 100.678 191.537 101.012 189.326 102.168C188.741 102.445 188.226 102.852 187.822 103.358C187.626 103.615 187.496 103.917 187.445 104.237C187.393 104.556 187.422 104.883 187.528 105.189C187.855 105.974 188.757 106.334 189.588 106.497C192.095 107.078 194.715 106.93 197.141 106.072C197.881 105.851 198.555 105.451 199.103 104.908C199.361 104.634 199.538 104.294 199.614 103.926C199.69 103.558 199.663 103.175 199.535 102.822Z" fill="#6F4439"/>
</g>
<path d="M179.444 103.587C179.091 103.863 178.699 104.083 178.28 104.241C177.304 104.665 176.299 105.017 175.271 105.294C174.243 105.591 173.194 105.809 172.132 105.948C171.702 106.034 171.261 106.054 170.824 106.007C170.824 105.902 172.819 105.667 175.199 104.993C177.58 104.32 179.398 103.496 179.444 103.587Z" fill="#6F4439"/>
<path d="M181.072 106.831C179.575 107.32 178.045 107.701 176.494 107.969C174.971 108.348 173.424 108.619 171.863 108.78C173.358 108.282 174.888 107.9 176.441 107.635C177.963 107.256 179.511 106.987 181.072 106.831Z" fill="#6F4439"/>
<g opacity="0.2">
<path d="M181.681 105.438C181.256 104.522 180.105 104.254 179.11 104.091L178.666 103.842C176.232 103.294 173.682 103.628 171.472 104.784C170.886 105.063 170.371 105.473 169.968 105.981C169.771 106.237 169.641 106.537 169.589 106.855C169.536 107.174 169.563 107.5 169.667 107.805C169.994 108.597 170.903 108.95 171.733 109.113C174.238 109.694 176.857 109.547 179.28 108.688C180.022 108.472 180.697 108.072 181.242 107.524C181.501 107.251 181.679 106.911 181.757 106.543C181.834 106.175 181.808 105.792 181.681 105.438Z" fill="#6F4439"/>
</g>
<path d="M165.835 105.948C165.484 106.226 165.091 106.447 164.67 106.602C163.697 107.043 162.691 107.408 161.662 107.694C160.634 107.991 159.584 108.209 158.523 108.348C158.092 108.434 157.651 108.454 157.215 108.407C157.215 108.302 159.177 108.067 161.59 107.393C164.003 106.72 165.789 105.876 165.835 105.948Z" fill="#6F4439"/>
<path d="M167.463 109.218C165.966 109.708 164.436 110.088 162.885 110.356C161.367 110.739 159.824 111.014 158.268 111.18C159.763 110.686 161.293 110.304 162.846 110.036C164.363 109.653 165.906 109.379 167.463 109.218Z" fill="#6F4439"/>
<g opacity="0.2">
<path d="M168.077 107.818C167.652 106.903 166.501 106.635 165.507 106.471L165.062 106.229C162.629 105.673 160.078 106.005 157.868 107.164C157.283 107.444 156.768 107.853 156.364 108.361C156.168 108.617 156.038 108.918 155.985 109.236C155.933 109.554 155.959 109.88 156.063 110.186C156.39 110.977 157.299 111.33 158.13 111.527C160.635 112.107 163.253 111.96 165.677 111.101C166.42 110.889 167.096 110.488 167.639 109.937C167.904 109.661 168.086 109.316 168.163 108.941C168.241 108.566 168.211 108.177 168.077 107.818Z" fill="#6F4439"/>
</g>
<path d="M228.108 140.388C226.928 140.796 225.713 141.098 224.478 141.29C223.266 141.589 222.029 141.778 220.783 141.853C223.176 141.147 225.628 140.657 228.108 140.388Z" fill="#6F4439"/>
<path d="M225.859 138.328C225.35 138.593 224.795 138.76 224.224 138.818C223.673 138.983 223.095 139.034 222.523 138.968C223.032 138.703 223.587 138.539 224.158 138.485C224.709 138.319 225.287 138.266 225.859 138.328Z" fill="#6F4439"/>
<g opacity="0.2">
<path d="M221.706 121.644C221.274 122.226 220.175 122.605 219.632 122.121C219.131 121.59 218.8 120.92 218.684 120.199C217.916 117.129 217.614 113.961 217.788 110.801C217.773 110.144 217.928 109.495 218.239 108.917C218.401 108.631 218.657 108.41 218.963 108.291C219.27 108.171 219.608 108.162 219.92 108.263L221.706 121.644Z" fill="white"/>
</g>
<path opacity="0.2" d="M170.04 241.607C176.469 237.683 180.707 230.921 183.062 223.786C185.416 216.651 186.096 209.09 186.881 201.615C188.298 188.413 190.051 175.272 192.139 162.192C192.139 162.192 191.139 143.01 189.157 129.257C187.175 115.503 184.075 103.097 182.983 103.751C181.891 104.405 167.287 235.597 167.287 235.597L170.04 241.607Z" fill="black"/>
<path opacity="0.2" d="M159.53 62.6466C160.39 64.4204 160.837 66.3655 160.838 68.3364C162.912 67.6241 165.161 67.6035 167.248 68.2775C169.335 68.9675 171.077 70.4332 172.113 72.3716C172.951 73.987 173.193 75.8247 173.461 77.6036C174.238 82.7788 175.299 87.9073 176.639 92.966H165.881L156.247 80.6774L154.377 74.4578C155.404 68.5326 156.829 63.7388 159.53 62.6466Z" fill="black"/>
<path d="M153.475 294.548C153.475 294.548 162.631 290.625 151.86 287.708C141.088 284.791 129.787 286.452 129.787 286.452L143.587 294.136L153.475 294.548Z" fill="#2CD2D2"/>
<path opacity="0.3" d="M153.475 294.548C153.475 294.548 162.631 290.625 151.86 287.708C141.088 284.791 129.787 286.452 129.787 286.452L143.587 294.136L153.475 294.548Z" fill="black"/>
<path d="M61.3257 152.676C61.3257 152.676 54.0467 154.671 57.9053 161.662C60.7306 166.783 63.7128 172.237 65.374 180.354C66.1065 183.964 70.4098 188.3 71.8224 191.236C75.6091 199.13 79.1145 205.696 84.7978 212.328C90.4811 218.959 108.159 230.64 107.838 238.847C107.518 247.055 84.8828 299.264 84.8828 299.264C102.626 310.074 123.044 313.547 144.861 313.155C144.861 313.155 160.557 256.204 162.768 247.369C164.978 238.533 173.604 231.117 179.288 217.86C184.971 204.604 186.763 175.946 187.397 153.291C187.927 134.325 183.709 113.632 183.624 107.256C183.613 104.737 183.191 102.236 182.375 99.8527C181.014 96.0072 178.235 91.5927 172.643 91.9524C172.643 91.9524 172.708 74.7326 169.811 68.7877C168.745 66.6099 165.129 65.3019 162.356 65.9755C160.97 66.328 159.659 66.926 158.484 67.7413C158.484 67.7413 159.864 54.0465 152.918 52.7843C149.753 52.2088 146.745 52.6731 144.933 55.4003C142.775 58.6703 141.846 63.9023 141.506 69.5463C141.506 69.5463 140.819 66.1455 135.247 66.1455C131.683 66.1455 128.897 68.8073 127.399 74.3794C124.914 83.8428 113.142 138.785 110.997 145.718C109.512 150.583 98.0544 184.546 94.8956 184.546C91.7367 184.546 88.434 181.701 86.544 176.652C84.6539 171.603 74.8962 148.569 61.3257 152.676Z" fill="#FFBF9D"/>
<path d="M126.516 145.332L126.633 145.162L127 144.678L128.399 142.801C129.001 141.983 129.707 140.976 130.525 139.779C131.449 138.442 132.267 137.033 132.971 135.568C133.354 134.709 133.599 133.795 133.697 132.86C133.854 131.886 133.958 130.859 134.076 129.799C134.311 127.68 134.501 125.404 134.73 123.017C135.129 118.23 135.567 112.972 136.038 107.452C136.16 106.07 136.293 104.708 136.437 103.365C136.563 102.046 136.764 100.736 137.038 99.4407C137.549 96.8901 137.895 94.3852 138.261 92.0178C138.915 87.2697 139.569 82.9991 140.086 79.3956C140.603 75.792 141.002 72.9144 141.289 70.8936C141.44 69.9126 141.551 69.1343 141.63 68.5849C141.669 68.3364 141.702 68.1337 141.728 67.9833C141.736 67.9142 141.751 67.8463 141.773 67.7805C141.781 67.8501 141.781 67.9202 141.773 67.9898C141.773 68.1402 141.741 68.343 141.715 68.5915C141.649 69.1474 141.558 69.8995 141.44 70.9132C141.178 72.9537 140.786 75.8574 140.341 79.4152C139.896 82.9729 139.282 87.3024 138.588 92.0505C138.229 94.4245 137.889 96.9162 137.379 99.4995C137.107 100.795 136.91 102.105 136.79 103.424C136.64 104.732 136.515 106.125 136.391 107.504C135.92 113.024 135.475 118.276 135.083 123.063C134.867 125.457 134.664 127.726 134.429 129.852C134.305 130.911 134.187 131.938 134.03 132.919C133.921 133.875 133.663 134.809 133.265 135.685C132.541 137.158 131.701 138.571 130.754 139.91C129.936 141.1 129.19 142.095 128.576 142.906C127.961 143.716 127.464 144.325 127.124 144.737L126.731 145.201C126.568 145.286 126.522 145.338 126.516 145.332Z" fill="#FF9A6C"/>
<path d="M173.964 91.8151C173.964 91.8151 173.912 91.8478 173.801 91.8935L173.304 92.0832C173.088 92.1682 172.846 92.3186 172.545 92.4756C172.217 92.6845 171.91 92.9255 171.629 93.195C170.866 93.9469 170.279 94.8581 169.909 95.8633C169.414 97.1957 169.11 98.5918 169.007 100.01C168.699 103.162 169.007 106.949 169.504 111.128C169.733 113.214 170.112 115.385 170.158 117.7C170.158 118.845 170.158 120.009 170.073 121.199C169.967 122.398 169.784 123.589 169.523 124.764C169.301 125.954 169.079 127.131 168.974 128.295C168.869 129.459 168.837 130.623 168.83 131.761C168.83 134.044 168.915 136.241 169.013 138.341C169.111 140.44 169.236 142.428 169.334 144.299C169.432 146.169 169.393 147.915 169.334 149.531C169.21 152.709 169.026 155.273 168.896 157.045C168.824 157.908 168.771 158.595 168.732 159.086L168.673 159.615C168.68 159.674 168.68 159.733 168.673 159.792C168.666 159.731 168.666 159.67 168.673 159.609V159.079C168.673 158.588 168.732 157.902 168.778 157.038C168.869 155.26 169.013 152.696 169.105 149.524C169.144 147.935 169.183 146.202 169.066 144.338C168.948 142.474 168.837 140.479 168.713 138.38C168.588 136.281 168.51 134.077 168.51 131.788C168.51 130.643 168.542 129.472 168.647 128.289C168.752 127.105 168.974 125.915 169.196 124.724C169.459 123.563 169.645 122.385 169.752 121.199C169.831 120.029 169.837 118.871 169.837 117.727C169.792 115.47 169.419 113.279 169.183 111.187C168.693 107.014 168.418 103.208 168.758 100.023C168.878 98.5862 169.204 97.1744 169.726 95.8306C170.12 94.8096 170.737 93.8891 171.531 93.1361C171.826 92.8685 172.146 92.6297 172.486 92.4233C172.8 92.2794 173.049 92.1355 173.271 92.057L173.788 91.8935C173.842 91.8576 173.901 91.8311 173.964 91.8151Z" fill="#FF9A6C"/>
<path d="M151.486 147.189C151.439 147.099 151.4 147.005 151.368 146.908C151.296 146.705 151.198 146.431 151.081 146.084C150.819 145.325 150.427 144.24 149.969 142.814C150.263 139.544 150.721 134.534 151.277 128.426C151.414 126.889 151.584 125.287 151.708 123.626C151.833 121.964 151.898 120.231 151.99 118.452C152.045 116.612 152.205 114.775 152.467 112.952C152.549 112.48 152.656 112.013 152.787 111.553C152.846 111.324 152.944 111.095 153.023 110.866L153.258 110.212C153.513 109.296 153.697 108.348 153.873 107.393C154.331 104.66 154.645 101.959 154.893 99.3491C155.142 96.7396 155.325 94.2152 155.403 91.8085C155.458 87.5284 155.759 83.2551 156.306 79.0097C156.622 76.1543 157.083 73.3166 157.686 70.5077C157.84 69.7385 158.059 68.9838 158.34 68.2514C158.42 68.062 158.521 67.8822 158.641 67.7151C158.684 67.6589 158.735 67.6083 158.791 67.5647C158.755 67.6253 158.714 67.6822 158.667 67.7347C158.565 67.908 158.477 68.0895 158.405 68.2776C158.145 69.013 157.942 69.7673 157.797 70.5339C157.372 72.4959 156.927 75.4454 156.522 79.0359C156.013 83.273 155.736 87.5346 155.691 91.8019C155.619 94.2217 155.436 96.7462 155.194 99.3687C154.952 101.991 154.645 104.686 154.181 107.439C154.012 108.4 153.794 109.352 153.527 110.291C153.37 110.768 153.193 111.206 153.056 111.644C152.927 112.091 152.824 112.546 152.748 113.005C152.486 114.812 152.324 116.633 152.264 118.459C152.173 120.238 152.094 121.971 151.97 123.645C151.846 125.319 151.656 126.915 151.512 128.446C150.897 134.554 150.4 139.564 150.067 142.834L151.1 146.104C151.211 146.457 151.296 146.758 151.355 146.941C151.407 147.019 151.45 147.102 151.486 147.189Z" fill="#FF9A6C"/>
<path d="M164.566 117.328C164.566 117.328 164.494 117.458 164.265 117.557C163.942 117.659 163.602 117.697 163.264 117.668C162.169 117.654 161.077 117.565 159.994 117.4C158.92 117.24 157.858 117.008 156.816 116.706C156.371 116.614 155.943 116.453 155.547 116.229C155.58 116.137 157.555 116.693 160.046 117.059C161.289 117.249 162.427 117.36 163.251 117.426C163.565 117.476 163.885 117.476 164.199 117.426C164.441 117.38 164.546 117.308 164.566 117.328Z" fill="#FF9A6C"/>
<path d="M166.117 121.134C165.551 121.264 164.97 121.319 164.39 121.297C161.585 121.348 158.793 120.892 156.15 119.95C155.594 119.779 155.06 119.542 154.561 119.244C155.126 119.36 155.681 119.519 156.222 119.721C157.549 120.115 158.898 120.428 160.263 120.656C161.629 120.878 163.007 121.011 164.39 121.055C164.967 121.043 165.544 121.069 166.117 121.134Z" fill="#FF9A6C"/>
<path d="M166.116 113.587C166.083 113.685 163.788 112.985 160.884 112.737C157.98 112.488 155.567 112.737 155.561 112.638C156.064 112.487 156.585 112.401 157.111 112.383C158.377 112.275 159.65 112.275 160.917 112.383C162.18 112.494 163.432 112.713 164.658 113.037C165.167 113.153 165.657 113.338 166.116 113.587Z" fill="#FF9A6C"/>
<path d="M181.891 132.265C181.468 132.472 181.016 132.615 180.551 132.69C179.439 132.932 178.307 133.068 177.169 133.095C176.033 133.124 174.896 133.043 173.775 132.854C173.303 132.807 172.842 132.685 172.408 132.494C172.408 132.389 174.534 132.834 177.163 132.755C179.792 132.677 181.865 132.16 181.891 132.265Z" fill="#FF9A6C"/>
<path d="M179.287 130.584C178.283 130.697 177.27 130.697 176.266 130.584C175.254 130.58 174.247 130.459 173.264 130.224C174.268 130.113 175.281 130.113 176.285 130.224C177.296 130.231 178.303 130.352 179.287 130.584Z" fill="#FF9A6C"/>
<path d="M178.915 135.613C178.346 135.891 177.716 136.021 177.084 135.993C176.454 136.075 175.814 135.992 175.227 135.751C175.836 135.656 176.454 135.623 177.071 135.653C177.682 135.574 178.301 135.561 178.915 135.613Z" fill="#FF9A6C"/>
<path d="M148.42 108.322C147.129 108.692 145.779 108.809 144.444 108.669C143.095 108.642 141.763 108.36 140.52 107.838C140.52 107.733 142.266 108.204 144.444 108.329C146.621 108.453 148.407 108.224 148.42 108.322Z" fill="#FF9A6C"/>
<path d="M148.667 111.533C148.215 111.777 147.727 111.947 147.221 112.037C144.799 112.615 142.267 112.541 139.883 111.821C139.383 111.705 138.905 111.506 138.471 111.232C140.129 111.688 141.829 111.971 143.546 112.076C145.267 112.066 146.982 111.884 148.667 111.533Z" fill="#FF9A6C"/>
<path d="M150.531 105.229C150.492 105.274 150.034 104.882 149.184 104.47C148.06 103.947 146.866 103.588 145.639 103.404C144.207 103.162 142.88 103.012 141.931 102.802C141.412 102.734 140.906 102.584 140.434 102.358C140.952 102.392 141.468 102.462 141.977 102.567C142.919 102.711 144.24 102.822 145.698 103.07C146.956 103.256 148.173 103.657 149.295 104.254C149.774 104.484 150.196 104.817 150.531 105.229Z" fill="#FF9A6C"/>
<path d="M126.877 112.253C124.971 112.654 123.002 112.654 121.096 112.253C122.057 112.172 123.023 112.158 123.986 112.213C124.95 112.159 125.916 112.172 126.877 112.253Z" fill="#FF9A6C"/>
<path d="M129.094 115.287C128.805 115.499 128.472 115.644 128.12 115.712C127.292 115.949 126.437 116.079 125.576 116.098C124.368 116.166 123.156 116.06 121.979 115.784C121.979 115.666 123.6 115.784 125.562 115.784C126.751 115.708 127.931 115.542 129.094 115.287Z" fill="#FF9A6C"/>
<g opacity="0.2">
<path d="M139.603 70.7301C139.641 72.2595 139.379 73.7815 138.832 75.21C138.256 76.7142 137.707 77.5906 136.471 78.238C135.635 78.6534 134.692 78.7996 133.77 78.6566C133.26 78.6231 132.763 78.4816 132.312 78.2415C131.861 78.0013 131.466 77.668 131.154 77.2636C130.59 76.2854 130.257 75.1917 130.179 74.0655C129.903 72.8955 129.937 71.6737 130.277 70.5208C130.591 69.7934 131.115 69.1762 131.781 68.7485C133.842 67.3358 135.987 67.5974 138.361 68.3561C138.593 68.4381 138.803 68.5738 138.974 68.7522C139.144 68.9306 139.27 69.1466 139.342 69.3829C139.497 69.816 139.585 70.2703 139.603 70.7301Z" fill="white"/>
</g>
<g opacity="0.2">
<path d="M167.953 70.7301C167.993 72.2591 167.733 73.7811 167.188 75.21C166.606 76.7142 166.063 77.5906 164.82 78.238C163.987 78.6533 163.046 78.7996 162.126 78.6566C161.616 78.6223 161.12 78.4805 160.669 78.2403C160.218 78.0002 159.823 77.6673 159.51 77.2636C158.946 76.2854 158.613 75.1917 158.535 74.0655C158.266 72.8948 158.3 71.6748 158.634 70.5208C158.949 69.7947 159.473 69.178 160.138 68.7485C162.204 67.3358 164.343 67.5974 166.723 68.3561C166.955 68.4403 167.164 68.5768 167.334 68.7549C167.504 68.9329 167.631 69.1478 167.704 69.3829C167.858 69.8159 167.942 70.2707 167.953 70.7301Z" fill="white"/>
</g>
<g opacity="0.2">
<path d="M170.426 97.9757C170.386 99.5047 170.646 101.027 171.191 102.456C171.773 103.96 172.323 104.836 173.559 105.484C174.392 105.898 175.333 106.045 176.253 105.902C176.763 105.868 177.259 105.726 177.71 105.486C178.161 105.246 178.556 104.913 178.869 104.509C179.433 103.531 179.766 102.437 179.844 101.311C180.113 100.14 180.079 98.9204 179.745 97.7664C179.431 97.0392 178.908 96.4221 178.241 95.9941C176.181 94.5814 174.036 94.843 171.655 95.6017C171.424 95.685 171.216 95.8212 171.046 95.9995C170.877 96.1778 170.752 96.3932 170.681 96.6285C170.525 97.0611 170.439 97.5159 170.426 97.9757Z" fill="white"/>
</g>
<g opacity="0.2">
<path d="M155.828 58.2779C155.885 59.9028 155.589 61.5207 154.958 63.0194C154.304 64.6151 153.65 65.5307 152.205 66.2174C151.209 66.6483 150.113 66.7932 149.039 66.636C148.452 66.6026 147.877 66.4537 147.347 66.1979C146.818 65.942 146.344 65.5842 145.952 65.1449C145.29 64.1241 144.888 62.9564 144.782 61.7441C144.572 60.4949 144.37 59.1281 144.873 57.9901C145.252 57.2033 145.864 56.5524 146.626 56.1262C149.039 54.6416 151.557 54.9359 154.356 55.76C154.62 55.8406 154.862 55.9811 155.063 56.1705C155.264 56.36 155.418 56.5932 155.514 56.8522C155.696 57.3069 155.802 57.7886 155.828 58.2779Z" fill="white"/>
</g>
<path d="M93.4169 191.236C93.3272 190.891 93.2984 190.532 93.3319 190.177C93.3202 189.313 93.3903 188.45 93.5412 187.6C93.6856 186.741 93.9824 185.915 94.4176 185.16C94.7642 184.585 95.0716 184.304 95.0716 184.33C94.9351 184.655 94.7756 184.97 94.5941 185.272C94.2397 186.033 93.9868 186.838 93.842 187.665C93.5216 189.608 93.5216 191.243 93.4169 191.236Z" fill="#FF9A6C"/>
<path d="M110.244 225.545C110.179 225.617 106.464 222.229 101.938 217.985C97.4127 213.74 93.8027 210.241 93.8681 210.176C93.9335 210.111 97.6482 213.492 102.174 217.736C106.7 221.981 110.31 225.48 110.244 225.545Z" fill="#FF9A6C"/>
<path d="M73.9611 177.358C74.0003 177.456 72.3849 178.012 70.6322 179.144C68.8795 180.275 67.6696 181.472 67.5977 181.393C68.3646 180.361 69.335 179.498 70.4491 178.856C71.5036 178.119 72.6994 177.609 73.9611 177.358Z" fill="#FF9A6C"/>
<path d="M77.9239 175.926C78.0835 176.532 77.9965 177.176 77.682 177.718C77.3974 178.316 77.0369 178.874 76.6094 179.379C76.1071 180.008 75.57 180.609 75.0006 181.178C73.9647 182.206 72.82 183.118 71.5867 183.898C71.0931 184.251 70.5541 184.534 69.9844 184.742C70.4548 184.368 70.9461 184.021 71.4559 183.702C72.6187 182.87 73.7122 181.944 74.7259 180.936C75.7693 179.951 76.6796 178.834 77.4334 177.613C77.7085 177.09 77.8753 176.516 77.9239 175.926Z" fill="#FF9A6C"/>
<path d="M70.4025 173.388C69.6941 174.145 68.9312 174.849 68.12 175.494C67.3849 176.228 66.5981 176.907 65.7656 177.528C66.3579 176.667 67.0741 175.898 67.8911 175.246C68.6336 174.508 69.4796 173.882 70.4025 173.388Z" fill="#FF9A6C"/>
<path opacity="0.2" d="M62.2931 167.588C62.607 167.692 68.7546 163.958 68.0221 161.78C67.2897 159.602 63.0844 153.749 60.8281 153.984C58.5718 154.22 57.4535 156.162 57.6562 158.654C57.859 161.146 62.2931 167.588 62.2931 167.588Z" fill="white"/>
<g opacity="0.2">
<path d="M134.129 130.198L138.471 89.8073C134.41 102.358 133.187 116.896 134.129 130.198Z" fill="black"/>
</g>
<g opacity="0.2">
<path d="M150.512 135.81C150.181 121.962 151.759 108.136 155.201 94.7189C155.495 98.3551 154.514 104.686 153.579 109.015C153.095 111.245 152.533 111.723 152.35 113.593C151.179 125.509 151.441 128.354 150.512 135.829" fill="black"/>
</g>
<path opacity="0.4" d="M94.8634 301.572C94.8634 301.572 115.654 244.02 114.778 234.4C113.901 224.78 108.172 223.603 102.057 217.86C95.9425 212.118 72.8366 193.126 72.6797 193.008C76.1524 200.124 79.5402 206.213 84.7983 212.341C90.475 218.972 108.159 230.653 107.839 238.86C107.518 247.068 84.8833 299.277 84.8833 299.277L94.8634 301.572Z" fill="#FF9A6C"/>
<g opacity="0.4">
<path d="M169.138 150.793C166.939 136.534 166.792 122.034 168.7 107.733C169.592 111.488 169.927 115.353 169.694 119.205C169.478 122.802 168.765 126.353 168.438 129.937C167.909 135.718 168.386 141.532 168.864 147.307" fill="#FF9A6C"/>
</g>
<g opacity="0.2">
<path d="M161.709 112.802C160.692 112.14 159.458 111.898 158.266 112.126C157.074 112.355 156.018 113.037 155.318 114.029C154.619 115.02 154.331 116.244 154.515 117.444C154.7 118.643 155.342 119.724 156.307 120.46C157.556 121.287 159.014 121.741 160.512 121.768C161.628 121.91 162.762 121.843 163.854 121.572C164.405 121.437 164.922 121.188 165.373 120.843C165.823 120.497 166.197 120.062 166.47 119.564C166.745 118.872 166.837 118.12 166.739 117.382C166.64 116.643 166.354 115.942 165.907 115.346C165.282 114.442 164.442 113.707 163.463 113.208C162.483 112.71 161.395 112.462 160.296 112.488" fill="#FF9A6C"/>
</g>
<g opacity="0.2">
<path d="M127.765 110.526C126.749 109.864 125.515 109.622 124.323 109.85C123.131 110.079 122.074 110.761 121.375 111.753C120.675 112.744 120.388 113.968 120.572 115.168C120.756 116.367 121.398 117.448 122.363 118.184C123.612 119.011 125.071 119.465 126.569 119.492C127.687 119.634 128.823 119.567 129.917 119.296C130.462 119.156 130.972 118.905 131.416 118.558C131.859 118.211 132.226 117.777 132.494 117.282C132.771 116.591 132.865 115.841 132.768 115.103C132.671 114.365 132.385 113.665 131.938 113.07C131.313 112.165 130.471 111.429 129.491 110.93C128.51 110.431 127.42 110.184 126.32 110.212" fill="#FF9A6C"/>
</g>
<g opacity="0.2">
<path d="M145.62 103.227C143.612 101.579 140.617 102.318 139.237 104.804C137.857 107.289 138.321 111.115 140.218 112.965C141.388 113.987 142.871 114.58 144.423 114.646C145.544 114.824 146.691 114.736 147.772 114.391C148.358 114.174 148.891 113.834 149.335 113.394C149.78 112.954 150.125 112.425 150.348 111.841C150.628 110.957 150.722 110.025 150.625 109.104C150.528 108.182 150.243 107.291 149.786 106.484C148.563 104.182 146.365 102.763 144.175 102.861" fill="#FF9A6C"/>
</g>
<g opacity="0.2">
<path d="M178.339 128.459C177.321 127.765 176.072 127.5 174.861 127.719C173.65 127.939 172.573 128.626 171.864 129.632C171.155 130.638 170.87 131.883 171.071 133.097C171.271 134.312 171.941 135.399 172.936 136.124C174.189 136.949 175.649 137.402 177.148 137.432C178.265 137.573 179.398 137.507 180.49 137.235C181.035 137.095 181.546 136.845 181.99 136.499C182.434 136.154 182.803 135.721 183.073 135.228C183.348 134.535 183.441 133.784 183.342 133.045C183.244 132.307 182.958 131.606 182.511 131.009C181.884 130.106 181.043 129.372 180.062 128.875C179.081 128.377 177.992 128.131 176.893 128.158" fill="#FF9A6C"/>
</g>
<g opacity="0.3">
<path d="M138.916 74.229C138.916 74.229 138.916 74.4318 138.798 74.7784C138.649 75.2659 138.461 75.7406 138.235 76.1976C137.908 76.8979 137.446 77.5268 136.875 78.0484C136.15 78.6782 135.219 79.0202 134.259 79.0098C133.294 78.9962 132.366 78.6365 131.643 77.9961C131.066 77.4736 130.634 76.8114 130.387 76.0733C130.216 75.5838 130.132 75.068 130.139 74.5495C130.124 74.3585 130.15 74.1665 130.217 73.9871C130.254 74.6692 130.386 75.3429 130.61 75.9883C130.879 76.6685 131.305 77.2757 131.852 77.7606C132.529 78.3391 133.388 78.6609 134.279 78.6697C135.156 78.6853 136.01 78.386 136.686 77.826C137.239 77.3424 137.696 76.7589 138.033 76.106C138.648 74.9746 138.863 74.2029 138.916 74.229Z" fill="white"/>
</g>
<g opacity="0.3">
<path d="M155.424 60.8219C155.424 61.0436 155.391 61.264 155.326 61.4759C155.186 62.0925 154.989 62.6946 154.737 63.2744C154.363 64.145 153.831 64.9388 153.167 65.6158C152.334 66.4548 151.246 66.9951 150.074 67.1527C149.488 67.2475 148.888 67.2148 148.316 67.0568C147.744 66.8988 147.213 66.6192 146.758 66.2371C146.06 65.5799 145.558 64.7424 145.306 63.8173C145.124 63.2124 144.993 62.5933 144.914 61.9664C144.87 61.7514 144.853 61.5318 144.862 61.3124C144.934 61.3124 145.045 62.2869 145.516 63.7715C145.784 64.6393 146.279 65.4202 146.948 66.0343C147.372 66.3783 147.864 66.6284 148.391 66.7682C148.919 66.908 149.47 66.9343 150.009 66.8453C151.11 66.7004 152.134 66.1998 152.926 65.4196C153.576 64.7798 154.108 64.029 154.495 63.2025C155.188 61.7506 155.358 60.7696 155.424 60.8219Z" fill="#FF9A6C"/>
</g>
<g opacity="0.3">
<path d="M168.078 72.9602C168.117 72.9602 167.79 73.7319 167.424 75.0268C167.219 75.7966 166.923 76.5388 166.541 77.2374C166.292 77.6745 165.956 78.0553 165.553 78.3559C165.15 78.6564 164.689 78.8701 164.199 78.9835C163.218 79.2051 162.189 79.0803 161.289 78.6304C160.573 78.2523 159.954 77.7154 159.477 77.0608C159.161 76.6267 158.906 76.1514 158.719 75.6481C158.634 75.4695 158.583 75.2765 158.568 75.0792C158.884 75.7198 159.254 76.3325 159.674 76.9104C160.144 77.5135 160.743 78.0049 161.426 78.3492C162.266 78.7481 163.214 78.854 164.121 78.65C164.569 78.548 164.991 78.3548 165.361 78.0825C165.731 77.8102 166.042 77.4647 166.272 77.0673C166.655 76.396 166.964 75.6856 167.195 74.9484C167.378 74.2419 167.677 73.5703 168.078 72.9602Z" fill="white"/>
</g>
<g opacity="0.3">
<path d="M180.19 99.8005C180.218 99.9891 180.218 100.181 180.19 100.369C180.141 100.884 180.058 101.396 179.942 101.9C179.778 102.659 179.486 103.384 179.079 104.045C178.547 104.864 177.756 105.481 176.833 105.798C175.91 106.116 174.907 106.116 173.984 105.798C173.239 105.53 172.584 105.058 172.094 104.437C171.76 104.031 171.511 103.561 171.361 103.057C171.29 102.879 171.259 102.687 171.27 102.495C171.501 103.143 171.841 103.747 172.277 104.28C172.809 104.907 173.52 105.358 174.314 105.571C175.108 105.785 175.949 105.752 176.724 105.477C177.579 105.188 178.315 104.625 178.817 103.875C179.222 103.248 179.523 102.558 179.706 101.834C180.014 100.592 180.131 99.7939 180.19 99.8005Z" fill="white"/>
</g>
<path d="M62.8557 154.998C62.8557 155.05 62.4503 154.854 61.7963 154.756C60.9466 154.629 60.0785 154.776 59.3176 155.175C58.5696 155.598 57.9779 156.252 57.6303 157.038C57.3621 157.647 57.3229 158.072 57.2706 158.065C57.199 157.687 57.247 157.296 57.4079 156.947C57.7109 156.062 58.3339 155.323 59.1543 154.874C59.9748 154.425 60.9335 154.299 61.842 154.521C62.2192 154.578 62.5714 154.744 62.8557 154.998Z" fill="#FF9A6C"/>
<path d="M92.43 279.578L84.8828 299.264C117.413 319.486 148.105 313.181 148.105 313.181L156.522 292.495C135.234 295.046 112.992 291.684 92.43 279.578Z" fill="#2CD2D2"/>
<path opacity="0.2" d="M102.522 298.296C102.194 299.044 101.652 299.677 100.964 300.117C100.276 300.556 99.4728 300.782 98.6566 300.765C97.8404 300.748 97.0476 300.489 96.3784 300.022C95.7092 299.554 95.1937 298.899 94.8971 298.138C94.6006 297.378 94.5363 296.546 94.7124 295.749C94.8885 294.952 95.297 294.225 95.8864 293.66C96.4757 293.095 97.2194 292.718 98.0233 292.575C98.8272 292.433 99.6552 292.533 100.403 292.861C101.404 293.301 102.189 294.121 102.587 295.14C102.984 296.159 102.961 297.294 102.522 298.296Z" fill="black"/>
<path d="M102.869 295.019C102.87 295.836 102.629 296.634 102.176 297.314C101.724 297.993 101.08 298.523 100.326 298.837C99.5718 299.15 98.7418 299.233 97.9409 299.074C97.14 298.916 96.404 298.523 95.8262 297.946C95.2484 297.369 94.8548 296.634 94.695 295.833C94.5352 295.033 94.6166 294.203 94.9287 293.448C95.2409 292.694 95.7698 292.049 96.4486 291.595C97.1274 291.141 97.9255 290.899 98.742 290.899C99.8353 290.899 100.884 291.333 101.658 292.106C102.431 292.878 102.867 293.926 102.869 295.019Z" fill="white"/>
<path d="M102.071 295.078C102.045 294.81 102.001 294.543 101.94 294.28C101.823 293.843 101.618 293.435 101.335 293.081C101.053 292.727 100.7 292.436 100.299 292.226C99.8982 292.016 99.4581 291.891 99.0065 291.86C98.555 291.828 98.1019 291.891 97.6759 292.044C97.1563 292.239 96.6958 292.565 96.3387 292.989C95.9816 293.414 95.7399 293.924 95.6371 294.469C95.5342 295.015 95.5736 295.577 95.7514 296.103C95.9292 296.629 96.2394 297.1 96.6522 297.471C97.065 297.842 97.5664 298.1 98.1081 298.221C98.6497 298.342 99.2134 298.322 99.7448 298.161C100.276 298.001 100.757 297.707 101.142 297.306C101.526 296.906 101.801 296.414 101.94 295.876C102.002 295.613 102.045 295.347 102.071 295.078C102.088 295.351 102.062 295.625 101.992 295.889C101.821 296.625 101.401 297.279 100.802 297.74C100.305 298.122 99.7117 298.358 99.0882 298.42C98.4646 298.482 97.8361 298.368 97.2739 298.092C96.7116 297.815 96.2381 297.386 95.907 296.854C95.5759 296.322 95.4004 295.708 95.4004 295.082C95.4004 294.455 95.5759 293.841 95.907 293.309C96.2381 292.777 96.7116 292.348 97.2739 292.071C97.8361 291.795 98.4646 291.681 99.0882 291.743C99.7117 291.805 100.305 292.041 100.802 292.423C101.418 292.885 101.851 293.55 102.025 294.3C102.08 294.556 102.096 294.818 102.071 295.078Z" fill="#263238"/>
<path d="M98.5977 294.66C99.0022 294.66 99.3302 294.332 99.3302 293.927C99.3302 293.523 99.0022 293.195 98.5977 293.195C98.1932 293.195 97.8652 293.523 97.8652 293.927C97.8652 294.332 98.1932 294.66 98.5977 294.66Z" fill="#263238"/>
<path d="M99.5977 296.497C99.5964 296.642 99.5524 296.783 99.4711 296.903C99.3899 297.022 99.275 297.115 99.1411 297.169C99.0071 297.224 98.8601 297.237 98.7184 297.208C98.5767 297.179 98.4468 297.109 98.3451 297.007C98.2433 296.904 98.1742 296.773 98.1464 296.631C98.1187 296.49 98.1336 296.343 98.1892 296.209C98.2448 296.076 98.3387 295.962 98.459 295.881C98.5793 295.801 98.7207 295.758 98.8653 295.758C98.962 295.758 99.0578 295.778 99.1471 295.815C99.2364 295.852 99.3174 295.907 99.3855 295.975C99.4536 296.044 99.5074 296.125 99.5439 296.215C99.5803 296.305 99.5986 296.401 99.5977 296.497Z" fill="#263238"/>
</svg>
