<svg width="51" height="30" viewBox="0 0 51 30" fill="none" xmlns="http://www.w3.org/2000/svg">
<path fill-rule="evenodd" clip-rule="evenodd" d="M30.9945 30C25.9417 29.9423 21.5637 27.1986 19.2363 24.4318C19.703 23.8456 20.1767 23.0677 20.66 22.7134C23.4528 26.3997 26.3107 28.6573 30.9945 30Z" fill="#5DFFFF"/>
<path fill-rule="evenodd" clip-rule="evenodd" d="M18.5952 6.59863C13.3261 3.16184 8.63671 6.07652 7.25 7.67129C11.3921 5.72458 14.9124 6.33348 19.0311 8.75174C21.9507 4.84108 23.0602 2.84858 28.5315 0.433594C24.4315 0.622211 20.8553 2.47257 18.5952 6.59863Z" fill="#5DFFFF"/>
<path fill-rule="evenodd" clip-rule="evenodd" d="M10.6204 22.5237C7.51101 22.0831 7.56903 18.6372 8.09824 16.8453C6.12903 19.031 6.27364 22.5332 8.60338 24.3188C11.5517 26.5787 17.2154 25.4151 19.3281 21.0065C18.8173 19.9831 17.1458 18.4827 16.304 17.6789C15.5071 19.934 13.5398 22.9373 10.6204 22.5237Z" fill="#5DFFFF"/>
<path fill-rule="evenodd" clip-rule="evenodd" d="M43.6335 13.2214C44.554 19.0309 39.6312 21.8025 38.1746 22.4346C45.1886 22.3783 49.34 16.5946 47.9064 9.66062C46.5162 2.93752 39.3104 -1.01168 32.4538 0.225672C28.142 1.00379 23.1159 3.75773 19.9609 9.36635C21.5086 10.3399 22.7648 11.5277 24.1258 12.895C28.5248 3.96562 41.4004 4.40572 43.6335 13.2214Z" fill="#5DFFFF"/>
<path fill-rule="evenodd" clip-rule="evenodd" d="M39.0276 23.7234C27.8442 24.9658 24.6318 9.46994 13.4259 7.95075C11.636 7.70801 9.72732 7.8235 8.17127 8.48298C-3.39257 13.3846 -0.609405 27.9893 8.10521 29.0349C11.1957 29.4055 15.2259 28.4361 17.4564 24.7676C15.1786 26.5066 11.3847 27.22 8.73772 25.6957C3.33902 22.5866 5.86482 12.8033 12.6359 14.6173C17.7018 15.9746 21.9063 23.4027 26.3477 26.6335C32.6063 31.1865 39.7054 30.5195 44.6975 27.3965C50.1205 24.004 52.0957 16.4373 49.1036 10.1216C50.0416 17.1933 47.559 22.7755 39.0276 23.7234Z" fill="#5DFFFF"/>
</svg>
