<svg width="100" height="49" viewBox="0 0 100 49" fill="none" xmlns="http://www.w3.org/2000/svg">
<path fill-rule="evenodd" clip-rule="evenodd" d="M0 41.0669V41.3232C1.7512 41.3232 4.74149 41.5796 6.40754 41.9638C9.01328 42.562 9.56843 42.0065 12.0887 41.2378C15.8478 40.0844 18.6244 39.1447 21.8708 36.9663C24.2202 35.3429 23.6223 34.702 24.1347 32.2244C24.3484 31.242 24.562 26.159 24.8611 25.9026C25.6299 25.1763 27.0823 26.2869 29.218 23.2114C29.688 22.5281 29.9017 21.5026 30.4568 20.9475C31.781 19.7087 32.2083 21.5881 32.4647 21.759C33.2762 21.8017 35.1556 17.0175 34.7286 15.736C34.3013 14.5827 32.8489 14.4118 31.9092 15.1808C31.3541 15.6933 30.6704 17.0602 30.2859 17.7436C29.3035 19.5378 27.3386 21.2893 24.9893 20.3493C22.8532 19.4951 22.3408 15.6078 21.1447 15.7787C21.102 15.8214 20.4184 17.9572 20.2902 18.299C19.9487 19.196 19.4787 19.9223 19.8632 20.8193C20.5466 22.3572 21.2729 23.7666 21.999 25.3899C22.6399 26.8851 23.3232 29.2772 23.1523 30.9432C22.9387 32.6517 20.8884 33.2499 19.5214 33.8905C13.5411 36.6244 6.10845 38.5466 0 41.0669Z" fill="#F6F8FA"/>
<path fill-rule="evenodd" clip-rule="evenodd" d="M14.0968 15.9923C13.8407 16.4196 12.3029 21.5026 12.3883 22.058C12.6019 23.4677 15.0795 25.4326 15.9337 26.2868C18.3686 28.6362 15.3783 29.2771 13.3707 29.6189C11.1068 30.0459 8.97105 29.0635 8.75742 26.5432C8.4156 21.9299 8.75742 15.7787 8.75742 10.9944C8.75742 9.71292 8.75742 8.38867 8.75742 7.10716C8.75742 6.42383 9.05651 3.60444 8.33015 3.81807C7.64682 4.03171 8.07379 5.48414 7.17682 6.55201C6.53622 7.3208 5.76713 7.83352 5.59623 8.9014C5.34017 10.4817 5.59623 14.7962 5.59623 16.6756C5.59623 19.2814 5.59623 21.8444 5.59623 24.4502C5.59623 29.5762 4.99835 33.4632 11.0641 34.4886C16.4892 35.471 17.3007 30.3023 18.1977 26.2014C18.7531 23.5959 19.0946 22.1008 16.8734 20.4347C16.2756 19.965 15.165 19.2387 14.8659 18.5553C14.2677 16.9747 15.7628 15.8214 14.0968 15.9923Z" fill="#F6F8FA"/>
<path fill-rule="evenodd" clip-rule="evenodd" d="M92.9957 34.1041C93.3802 34.0187 96.3702 35.2147 94.149 35.7275C91.7142 36.2826 91.586 34.4887 92.9957 34.1041ZM93.1666 31.0284C86.4173 44.0144 98.8905 35.5138 96.6266 38.8456C96.1566 39.529 91.0306 40.4262 90.6036 37.5641C90.3472 35.9835 91.116 35.2575 89.8345 34.0614C88.7666 33.1217 87.9978 33.1217 88.2542 31.5838C88.553 29.3626 86.93 33.5487 86.93 33.5487C86.4173 34.8302 87.0582 35.6847 87.9124 36.4535C88.3824 36.9662 90.1336 38.205 89.2366 38.8884C88.4251 39.4865 86.7163 39.6144 85.7767 39.3584C83.8115 38.7602 84.4951 33.7623 84.4951 32.0538C84.4951 31.1566 84.6233 23.8093 84.367 23.5959C84.1961 23.5959 83.5979 25.219 83.0427 25.8172C82.3164 26.586 82.5727 27.782 82.5727 28.8926C82.5727 31.242 82.5727 33.6341 82.5727 35.9835C82.5727 38.205 82.1458 40.2126 83.9397 41.7505C84.666 42.3483 85.8194 42.562 86.7591 42.4765C88.6385 42.2629 88.2115 41.7505 89.1512 41.3232C89.9627 41.5796 90.1336 42.0493 91.5006 42.3056C92.5257 42.4765 93.4654 42.562 94.5336 42.3483C96.6266 42.0065 97.2672 40.9814 97.9081 39.0593C98.8478 36.1117 96.1993 30.7723 93.1666 31.0284Z" fill="#F6F8FA"/>
<path fill-rule="evenodd" clip-rule="evenodd" d="M49.2966 40.8105C50.0654 41.0668 50.6209 43.459 53.91 42.3056C54.5509 42.0493 55.6615 40.7678 55.7042 40.7678C55.7042 40.7678 56.9857 42.092 57.4981 42.2202C59.6769 42.8611 61.0439 42.092 61.6417 39.999C61.9836 38.8884 62.966 35.6847 62.7951 34.5741C62.6669 33.976 61.6845 33.2499 61.2145 32.7799C60.232 31.712 60.6166 30.6869 60.3602 30.5587C59.933 30.3878 58.3527 34.1041 59.506 35.2575C60.3175 36.1117 62.7951 37.8632 61.0011 38.9738C60.4457 39.3156 58.6942 39.3156 58.0536 39.1875C56.5584 38.8884 57.3702 37.3078 57.1139 36.8808C56.5157 36.9235 55.7042 38.9311 54.38 39.3584C53.1839 39.7853 51.2615 39.8708 50.5354 38.5038C49.6812 36.9235 51.1336 35.4711 49.8948 34.275C49.4248 33.8478 48.9121 33.5059 48.4851 33.079C47.5879 32.3099 48.2288 31.3702 48.0579 31.1138C47.5451 31.0284 46.8191 33.3353 46.6054 33.8905C46.2212 35.0011 47.1609 35.8981 47.887 36.6244C48.4424 37.1796 50.1509 38.3756 48.8267 38.9738C47.9724 39.3584 46.3491 39.8281 45.3667 39.2729C43.7864 38.3756 44.3415 33.5914 44.3415 31.8829C44.3415 31.0284 44.4697 23.7241 44.2561 23.596C43.5727 23.5532 43.957 24.2366 43.6155 24.8348C43.3591 25.3472 43.1455 25.4754 42.8037 25.8599C42.0776 26.7141 42.334 27.8675 42.334 29.0635C42.334 31.4984 42.334 33.9759 42.334 36.4108C42.334 38.4611 42.0349 40.7678 44.1279 41.9638C46.5627 43.3735 47.8442 42.1774 49.2966 40.8105Z" fill="#F6F8FA"/>
<path fill-rule="evenodd" clip-rule="evenodd" d="M41.8627 5.91114C39.556 6.89356 39.0005 8.38871 36.0106 8.38871C34.9854 8.43143 33.533 8.04689 32.7639 7.44902C31.8669 6.72296 31.1409 5.82568 30.1157 6.97901C27.9797 9.45658 27.5955 9.20053 25.203 7.02174C24.1779 6.12477 23.8791 5.39871 22.8537 6.89356C22.3412 7.61992 21.017 8.55962 21.6149 9.45659C22.5549 10.8236 25.0324 12.7887 27.04 11.7205C28.1933 11.1226 28.5779 9.84113 29.5603 10.439C30.7991 11.1226 30.4572 11.3363 32.2942 11.9342C34.43 12.6178 36.7793 11.0372 38.2318 9.71295C38.2318 9.71295 43.8702 5.0569 41.8627 5.91114Z" fill="#F6F8FA"/>
<path fill-rule="evenodd" clip-rule="evenodd" d="M39.0431 26.7996C39.0004 26.8423 38.2743 28.7644 38.1889 29.0208C37.847 29.875 38.2743 30.2596 38.7443 31.1138C39.4276 32.438 40.1964 34.275 40.1964 35.7701C40.2391 38.205 33.9598 39.828 31.8668 39.6571C30.2434 39.5289 28.7059 39.0592 28.065 37.4359C27.7659 36.5817 27.6804 35.5992 27.8941 34.702C28.3213 33.0362 28.1077 33.805 29.0047 32.7799C31.5677 29.9605 26.5271 33.1217 27.8086 29.9177C28.065 29.2344 28.535 28.6362 28.8768 27.9956C29.8165 26.5005 28.4922 27.6965 28.1077 28.2947C27.5098 29.1489 26.1428 31.7974 27.0398 32.7799C27.7231 33.5914 26.6125 36.6671 26.7834 37.9486C27.4244 42.3056 29.8592 43.0747 34.088 42.3056C35.1986 42.1347 37.5482 41.1523 38.4452 40.5117C40.5382 39.0165 40.4528 39.4438 40.8373 36.7953C41.051 35.2574 41.1791 32.4808 41.0509 30.9005C40.9655 30.2168 39.5985 26.885 39.0431 26.7996Z" fill="#F6F8FA"/>
<path fill-rule="evenodd" clip-rule="evenodd" d="M17.7702 48.5423H18.0265C18.0265 48.5423 19.6926 48.1578 20.1198 47.9017C20.5895 47.5599 21.145 46.6629 21.6147 46.7056C21.9565 46.7056 22.9816 47.4744 23.3235 47.7308C23.6226 47.9444 25.2029 48.5423 25.2029 48.5423H26.698L34.088 43.2881L33.7892 42.9466C32.2086 42.8184 30.7989 46.022 26.4844 44.4414C25.3738 44.0144 24.135 42.562 23.2807 42.9466C22.4265 43.3735 21.7001 45.0823 20.6323 45.125C17.9411 45.2959 17.4714 40.2981 15.0365 43.7581C13.8832 45.3814 13.3705 44.9114 14.9084 46.5775C15.378 47.0044 15.6771 47.3462 16.1899 47.7308C16.489 47.9017 17.7702 48.5423 17.7702 48.5423Z" fill="#F6F8FA"/>
<path fill-rule="evenodd" clip-rule="evenodd" d="M76.1211 34.1896C76.6338 34.0614 79.4105 35.3429 77.1466 35.6847C74.7117 36.069 74.8396 34.5314 76.1211 34.1896ZM69.7139 44.0144C69.842 44.1426 72.832 44.2708 73.302 44.3987C75.1387 44.7832 74.5835 44.9114 76.292 43.9717C77.8299 43.1174 79.5814 42.092 80.5211 40.2981C81.5462 38.2902 81.3753 35.7702 80.3075 33.9332C79.7523 32.9508 76.8475 29.7044 76.036 31.6693C75.4378 33.0363 73.6436 36.2399 74.3272 37.6496C75.566 40.1699 80.1793 36.7526 79.9656 38.3756C79.6241 40.6826 69.7566 43.8435 69.7139 44.0144Z" fill="#F6F8FA"/>
<path fill-rule="evenodd" clip-rule="evenodd" d="M71.0805 35.3856C71.4648 37.0517 73.686 37.6923 70.3969 39.4011C68.9872 40.0844 66.9797 40.6826 65.4418 41.3232C63.8612 41.9211 62.0673 42.562 60.5294 43.2026C59.9312 43.4589 57.6673 43.9717 59.1197 44.0999C60.1448 44.1853 61.2127 44.1853 62.1954 44.3986C64.7585 44.9114 70.226 42.8183 71.9775 40.8532C72.8318 39.9135 73.1308 36.4535 73.1308 35.172C73.1308 34.7874 72.4899 32.7799 72.0202 33.0362C71.6784 33.2071 70.9524 34.9156 71.0805 35.3856Z" fill="#F6F8FA"/>
<path fill-rule="evenodd" clip-rule="evenodd" d="M26.74 0.0590169C26.1421 0.443562 24.1342 2.10931 24.3479 2.70749C24.6897 3.51901 26.3985 4.71506 27.21 5.05688C30.3281 6.38112 32.4215 4.71507 34.5572 2.96386C35.2405 2.4084 36.9066 1.21235 37.2484 0.486292C37.7608 -0.538858 34.4717 1.68235 34.1727 1.76781C29.4739 3.6472 27.8078 -0.538861 26.74 0.0590169Z" fill="#F6F8FA"/>
<path fill-rule="evenodd" clip-rule="evenodd" d="M16.3604 3.26265C16.4886 2.75023 16.8301 2.75023 17.3001 2.79295C17.5137 2.83568 17.7273 3.13478 17.8552 3.30538L17.898 3.39083C18.1116 3.60447 18.1543 3.94629 17.7698 3.94629C17.3001 3.94629 16.4458 3.86083 16.3604 3.26265ZM12.7295 14.5826C13.4983 14.5826 15.8477 12.2332 16.4886 11.5499C18.9234 9.02961 17.6846 7.83356 18.7098 6.68023L20.2049 7.96174C20.8455 7.44902 20.5464 5.5269 19.564 4.88599C18.8379 4.37326 19.3931 2.32295 18.8379 1.38326C17.5137 -0.966132 14.9507 2.0666 15.2071 4.62963C15.3777 6.12478 17.5137 5.95387 17.4283 6.55205C17.3855 7.36356 16.4458 8.94416 16.0613 9.41386C15.634 9.88386 12.7295 14.2408 12.7295 14.5826Z" fill="#F6F8FA"/>
<path fill-rule="evenodd" clip-rule="evenodd" d="M100 26.7568V26.4578C99.2316 26.4578 97.8646 28.252 95.9849 27.6538C93.8492 26.9705 94.5755 25.689 92.5249 26.9705C88.6804 29.3199 87.9544 25.6035 86.8438 26.5432C86.5874 26.7569 85.5623 27.6965 85.5195 27.9529C85.605 28.7217 87.8262 29.875 88.6804 29.875C90.0474 29.8323 91.7989 28.2093 92.098 28.2093C93.2513 28.7644 93.8919 30.6014 96.4549 29.5335C97.3519 29.149 99.9576 26.7568 100 26.7568Z" fill="#F6F8FA"/>
<path fill-rule="evenodd" clip-rule="evenodd" d="M43.4863 48.5423H44.4687L45.7502 47.4317L45.7929 47.3035L47.9287 48.5423H49.1247L54.208 44.8259L54.1226 44.6978C53.6956 44.356 51.7305 46.6202 49.5947 46.1929C48.2705 45.8938 48.4841 45.6802 47.5017 45.125C46.8181 44.6978 46.2629 45.8938 45.7929 46.2784C44.2978 47.4317 43.3581 43.5872 42.0338 45.3814C41.4357 46.2356 40.8378 46.3211 41.7348 47.2181C41.9911 47.5172 42.2048 47.8162 42.4611 47.9869C42.6745 48.1578 43.4435 48.4141 43.4863 48.5423Z" fill="#F6F8FA"/>
<path fill-rule="evenodd" clip-rule="evenodd" d="M65.7842 23.6387C65.6987 23.7242 65.1006 25.1335 65.0151 25.3472C64.7163 26.0308 65.3142 26.3723 65.7415 26.8851C66.6384 27.782 67.3221 29.0208 67.2793 30.3451C67.2366 31.5838 66.5102 32.9935 66.1257 34.1896C65.4851 36.1972 67.3645 36.9663 68.219 35.8129C70.312 33.079 67.4072 34.8729 67.1084 33.7196C66.8521 32.8226 67.8345 30.8151 68.219 29.9178C68.8596 28.5084 69.1587 27.5684 68.1763 26.159C67.9627 25.7745 66.3393 23.126 65.7842 23.6387Z" fill="#F6F8FA"/>
<path fill-rule="evenodd" clip-rule="evenodd" d="M38.0182 26.5005C36.8649 26.5005 35.7543 28.679 33.3195 27.3975C32.5507 27.056 31.9525 26.0735 31.3119 26.5005C30.9274 26.7996 29.6886 27.6966 30.0731 28.2093C33.1913 32.3099 38.0182 27.0987 38.0182 26.5005Z" fill="#F6F8FA"/>
<path fill-rule="evenodd" clip-rule="evenodd" d="M50.8331 26.3723C49.637 27.5683 48.2273 28.252 51.0467 29.4908C53.1397 30.3877 54.0367 29.448 55.5318 28.3374C55.7882 28.0811 57.027 27.1414 57.2406 26.7996C57.7103 25.9453 55.8309 27.3123 55.4891 27.4402C52.8406 28.5083 51.2176 25.988 50.8331 26.3723Z" fill="#F6F8FA"/>
<path fill-rule="evenodd" clip-rule="evenodd" d="M62.9644 45.2959C63.776 44.5696 61.3411 45.8083 61.2984 45.8511C58.5648 47.0471 57.4966 44.7405 56.6851 44.8686C56.3433 44.9541 55.1045 46.2356 55.1045 46.4492C55.1472 47.5171 58.1375 48.6277 59.4617 48.0723C60.8714 47.4744 61.8966 46.2783 62.9644 45.2959Z" fill="#F6F8FA"/>
<path fill-rule="evenodd" clip-rule="evenodd" d="M80.6484 24.2793C80.0075 24.7493 76.7184 25.9026 75.7787 26.2441C75.4369 26.3723 70.7809 28.8926 72.4039 29.1917C72.6175 29.2344 76.7611 27.4829 77.2311 27.2268C77.7863 26.9277 79.196 26.4577 79.5805 26.159C79.8793 25.9026 81.6308 23.5959 80.6484 24.2793Z" fill="#F6F8FA"/>
<path fill-rule="evenodd" clip-rule="evenodd" d="M60.6592 24.4502C60.8301 24.322 60.8301 24.4075 61.001 24.4929C61.2144 24.5784 61.1292 24.4929 61.2571 24.6639C61.3426 24.792 61.5135 25.2617 61.2571 25.3045C61.0438 25.3045 60.1038 24.7493 60.6592 24.4502ZM55.875 30.2596L61.2571 27.5257L61.001 27.0987C61.428 27.1842 61.5989 29.0208 62.1544 27.3123C62.5813 26.1163 61.5989 26.8851 62.1544 25.2617C63.0086 22.656 60.531 22.9551 59.7623 24.4075C58.5235 26.7996 61.9835 25.7745 59.2068 27.8248C58.8223 28.1238 55.875 30.0887 55.875 30.2596Z" fill="#F6F8FA"/>
<path fill-rule="evenodd" clip-rule="evenodd" d="M44.0897 13.3629C44.1107 13.3614 44.1222 13.3711 44.124 13.3917C44.1285 13.4444 44.1034 13.5199 43.9867 13.752C43.9419 13.8399 43.9264 13.9047 43.93 13.9469C43.9373 14.0305 44.0179 14.1078 44.15 14.1699C44.4446 14.2811 44.8934 14.3475 45.2176 14.319C45.4582 14.2981 45.5176 14.2508 45.5949 14.0541C45.6279 13.9457 45.6728 13.8575 45.6906 13.8241C45.7085 13.7802 45.7715 13.659 45.8825 13.4805C46.0382 13.2138 46.0867 13.0405 46.0685 12.8317C46.0409 12.5175 45.7816 12.0869 45.4749 11.8393C45.2482 11.659 45.0006 11.596 44.6343 11.6278C43.5667 11.7214 42.5279 12.266 41.9519 13.0332C41.6307 13.4623 41.5176 13.9784 41.5819 14.7111C41.6119 15.0566 41.694 15.2705 41.8704 15.4769C42.0922 15.7211 42.5046 16.0963 42.7388 16.2444C42.9737 16.3926 43.0428 16.4602 43.0519 16.5653C43.061 16.6696 43.0046 16.7484 42.807 16.9026C42.5991 17.0578 42.3761 17.162 42.2194 17.1757C42.1567 17.1811 42.0998 17.1335 42.0931 17.0602C42.024 16.7499 42.024 16.7499 41.9861 16.6793C41.9255 16.5896 41.8037 16.5266 41.6994 16.5357C41.5537 16.559 41.4394 16.5793 41.3661 16.586C41.2619 16.595 41.1985 16.6005 41.1895 16.612C41.1079 16.6505 41.1079 16.6505 41.057 16.6657C40.9349 16.7187 40.9149 16.7311 40.8361 16.9169C40.8085 16.9614 40.754 17.0614 40.6622 17.2172C40.5255 17.4611 40.4479 17.6578 40.4567 17.762C40.4689 17.8981 40.6389 18.1578 40.9201 18.4811C41.3058 18.9114 41.5495 19.0375 41.9049 19.0062C42.1667 18.9835 42.4855 18.8923 42.9025 18.7187C43.7067 18.3847 44.2322 18.0014 44.5094 17.5553C44.787 17.1093 44.9273 16.5484 44.8888 16.109C44.857 15.7426 44.6949 15.3347 44.4861 15.1211C44.3594 14.9953 43.94 14.6629 43.5716 14.4314C43.3249 14.2629 43.2209 14.1563 43.2134 14.0726C43.2052 13.9784 43.3991 13.782 43.6094 13.6584C43.7297 13.5844 43.8297 13.5229 43.9085 13.4635C44.0385 13.3781 44.0585 13.3657 44.0897 13.3629ZM97.1585 15.2263C97.1664 15.2254 97.1837 15.2475 97.1852 15.2632C97.1867 15.279 97.181 15.3032 97.1679 15.336C97.1531 15.3454 97.1189 15.4987 97.0998 15.6426C97.084 15.7308 97.021 16.0054 96.9225 16.4175C96.8001 16.9184 96.757 17.1514 96.6882 17.8066C96.6285 18.389 96.6286 18.389 96.6325 18.436C96.6407 18.5302 96.701 18.5881 96.8573 18.6538C96.9549 18.6844 97.0373 18.7247 97.1037 18.7584C97.3701 18.9093 97.3701 18.9093 97.4246 18.9047C97.4952 18.8984 97.5219 18.8405 97.5116 18.7229C97.461 17.8732 97.7789 15.8993 98.2467 14.1978C98.2646 14.1326 98.2758 14.0766 98.2722 14.0372C98.2716 13.9423 98.1813 13.8078 97.9728 13.5969C97.8682 13.4872 97.7691 13.4408 97.6907 13.4475C97.3849 13.4741 96.1728 15.2647 95.8337 16.1805C95.8086 16.2538 95.7822 16.3117 95.7546 16.3614C95.7298 16.3478 95.7282 16.332 95.7261 16.3084C95.7222 16.2614 95.7246 16.1978 95.7343 16.1256C95.7655 14.9447 95.7655 14.6756 95.7322 14.2911C95.7161 14.1108 95.6773 13.9399 95.6358 13.825C95.5755 13.6802 95.5083 13.6305 95.3149 13.5917C94.9925 13.5254 94.944 13.5138 94.8419 13.5226C94.7558 13.5299 94.684 13.6156 94.6925 13.7096C94.6992 13.7881 94.7616 14.0517 94.7949 14.1596C94.8055 14.1902 94.7807 14.2714 94.718 14.3641C94.327 14.9596 94.1183 15.3735 93.7637 16.2984C93.1134 17.9923 92.9931 18.335 93.0055 18.4766C93.0128 18.5626 93.104 18.6972 93.2431 18.8432C93.374 18.982 93.4568 19.0223 93.5743 19.012C93.7704 18.9947 93.8295 18.9423 93.8655 18.7256C93.9643 18.2266 94.238 17.2847 94.5873 16.3053C94.6507 16.1256 94.7186 15.9063 94.7752 15.7429C94.8137 15.6372 94.8589 15.5223 94.8589 15.5223C94.8725 15.4972 94.8861 15.4723 94.8855 15.4647L94.8998 15.4475C94.9234 15.4453 94.9431 15.4908 94.947 15.5381C94.9522 15.5932 94.9504 15.6647 94.9431 15.7602L94.9474 16.7169C94.9443 16.8596 94.9298 17.9602 94.9325 17.9914C94.9222 18.056 94.9186 18.1035 94.9216 18.1347C94.9316 18.2523 95.0355 18.3541 95.217 18.4414C95.4634 18.546 95.5289 18.572 95.5761 18.5678C95.6467 18.5617 95.7028 18.4781 95.7431 18.3084C95.9195 17.6126 96.4167 16.422 96.824 15.7456L97.0022 15.4296C97.0504 15.3463 97.1131 15.2535 97.1219 15.2611C97.1367 15.2514 97.1516 15.2426 97.151 15.2347L97.1585 15.2263ZM91.7722 13.4478C91.5995 13.4629 91.1592 13.9447 90.7325 14.5829C90.1516 15.4487 89.7965 16.7214 89.8756 17.6241C89.9077 17.9929 90.0183 18.2602 90.2377 18.5099C90.4749 18.7817 90.7807 18.929 91.0477 18.9056C91.6128 18.8563 92.3098 18.1466 92.7546 17.1744C93.0798 16.4581 93.2349 15.7008 93.1792 15.065C93.1237 14.429 92.8455 13.6941 92.6731 13.7093C92.6498 13.7114 92.6189 13.722 92.5898 13.7484C92.4558 13.8469 92.3955 13.8838 92.3565 13.8872C92.3249 13.8899 92.2737 13.8472 92.2128 13.7811C92.0192 13.5608 91.8665 13.4396 91.7722 13.4478ZM91.9801 14.4659C92.1134 14.4541 92.2534 14.6951 92.2789 14.9857C92.3262 15.5269 92.0801 16.4266 91.6762 17.2293C91.3989 17.7678 91.1558 18.0656 90.9755 18.0817C90.8731 18.0905 90.798 17.9544 90.7768 17.7111C90.7131 16.9814 90.9831 16.0005 91.4971 15.0935C91.7101 14.7269 91.9016 14.4729 91.9801 14.4659ZM88.9395 14.8323C88.8768 15.0214 88.8768 15.0214 88.881 15.0687C88.8907 15.1793 89.0559 15.2599 89.244 15.2435C89.7152 15.2023 89.964 14.7905 89.9074 14.1414C89.864 13.6469 89.625 13.4463 89.1383 13.489C88.581 13.5378 87.9725 13.9944 87.5286 14.7084C86.9731 15.5926 86.6425 16.7881 86.7168 17.6332C86.7495 18.0099 86.8595 18.2678 87.0668 18.4711C87.2916 18.689 87.6274 18.8178 87.9256 18.7914C88.3022 18.7587 88.7983 18.5493 89.0395 18.3305C89.208 18.1732 89.3137 17.9347 89.298 17.7553C89.2834 17.5905 89.2098 17.4705 89.1313 17.4772C89.0762 17.482 89.0762 17.482 88.8598 17.6278C88.5689 17.8269 88.2177 17.9753 88.0062 17.9935C87.7941 18.0123 87.7307 17.9241 87.7025 17.6023C87.6307 16.7808 87.9683 15.575 88.4871 14.8154C88.7449 14.4184 88.9031 14.2372 88.9816 14.2305C89.021 14.2269 89.0722 14.2699 89.0762 14.3172C89.0798 14.3575 89.0798 14.3575 89.0204 14.5854L88.9395 14.8323ZM85.2535 17.6623C85.1907 17.6675 85.1465 17.7032 85.1062 17.7859C85.0089 17.9447 84.9174 18.3402 84.931 18.4975C84.9429 18.6308 85.0301 18.7259 85.2189 18.8041C85.4653 18.909 85.6047 18.9602 85.6592 18.9556C85.7222 18.9499 85.7644 18.8911 85.7804 18.8023C85.7892 18.7226 85.7986 18.6508 85.8162 18.5781C85.8253 18.5059 85.8422 18.4253 85.8674 18.352C85.9713 18.0899 85.9713 18.0899 85.9671 18.0426C85.9589 17.9487 85.8813 17.8763 85.7004 17.7972C85.4453 17.6853 85.3316 17.6553 85.2535 17.6623ZM83.6095 13.4478C83.4368 13.4629 82.9965 13.9447 82.5695 14.5829C81.9889 15.4487 81.6338 16.7214 81.7126 17.6241C81.7447 17.9929 81.8553 18.2602 82.075 18.5099C82.3123 18.7817 82.6177 18.929 82.8847 18.9056C83.4501 18.8563 84.1471 18.1466 84.5916 17.1744C84.9168 16.4581 85.0719 15.7008 85.0165 15.065C84.961 14.429 84.6829 13.6941 84.5101 13.7093C84.4868 13.7114 84.4562 13.722 84.4268 13.7484C84.2929 13.8469 84.2326 13.8838 84.1938 13.8872C84.162 13.8899 84.111 13.8472 84.0501 13.7811C83.8565 13.5608 83.7038 13.4396 83.6095 13.4478ZM83.8171 14.4659C83.9507 14.4541 84.0904 14.6951 84.1159 14.9857C84.1632 15.5269 83.9174 16.4266 83.5135 17.2293C83.2362 17.7678 82.9932 18.0656 82.8126 18.0817C82.7104 18.0905 82.6353 17.9544 82.6141 17.7111C82.5501 16.9814 82.8204 16.0005 83.3344 15.0935C83.5474 14.7269 83.7389 14.4729 83.8171 14.4659ZM80.7765 14.8323C80.7141 15.0214 80.7141 15.0214 80.718 15.0687C80.7277 15.1793 80.8932 15.2599 81.0814 15.2435C81.5526 15.2023 81.8014 14.7905 81.7444 14.1414C81.7014 13.6469 81.462 13.4463 80.9756 13.489C80.418 13.5378 79.8095 13.9944 79.3656 14.7084C78.8105 15.5926 78.4796 16.7881 78.5538 17.6332C78.5868 18.0099 78.6965 18.2678 78.9041 18.4711C79.1286 18.689 79.4644 18.8178 79.7626 18.7914C80.1395 18.7587 80.6353 18.5493 80.8768 18.3305C81.0453 18.1732 81.1508 17.9347 81.135 17.7553C81.1208 17.5905 81.0471 17.4705 80.9683 17.4772C80.9135 17.482 80.9135 17.482 80.6971 17.6278C80.4059 17.8269 80.055 17.9753 79.8432 17.9935C79.6311 18.0123 79.5677 17.9241 79.5399 17.6023C79.468 16.7808 79.8056 15.575 80.3241 14.8154C80.5823 14.4184 80.7402 14.2372 80.8189 14.2305C80.8583 14.2269 80.9092 14.2699 80.9135 14.3172C80.9171 14.3575 80.9171 14.3575 80.8577 14.5854L80.7765 14.8323ZM77.0908 17.6623C77.0281 17.6675 76.9838 17.7032 76.9435 17.7859C76.8462 17.9447 76.7547 18.3402 76.7684 18.4975C76.7802 18.6308 76.8671 18.7259 77.0562 18.8041C77.3026 18.909 77.4417 18.9602 77.4965 18.9556C77.5593 18.9499 77.6017 18.8911 77.6177 18.8023C77.6265 18.7226 77.6359 18.6508 77.6535 18.5781C77.6626 18.5059 77.6793 18.4253 77.7044 18.352C77.8087 18.0899 77.8087 18.0899 77.8044 18.0426C77.7962 17.9487 77.7183 17.8763 77.5374 17.7972C77.2826 17.6853 77.169 17.6553 77.0908 17.6623ZM72.049 15.202C72.0293 15.2144 72.0196 15.2259 72.0196 15.2259C72.0099 15.2372 72.0005 15.2487 72.0032 15.2799C71.8657 15.7557 71.8466 15.7787 71.5832 15.9075C71.3796 15.9884 71.2841 16.102 71.2857 16.2393C71.3041 16.3323 71.3214 16.4047 71.3251 16.4466C71.3511 16.6235 71.3626 16.6332 71.3914 16.7257C71.4066 16.7769 71.4208 16.8178 71.4226 16.839C71.425 16.8702 71.4175 16.9023 71.3999 16.9463C71.1754 17.3878 71.0475 17.7366 71.0593 17.8723C71.0632 17.9144 71.1026 18.0056 71.1369 18.0344C71.172 18.0735 71.2063 18.102 71.2405 18.1308C71.2632 18.1499 71.2999 18.2099 71.349 18.2899C71.6072 18.7105 71.6526 18.7487 71.9953 18.8026C72.0272 18.8108 72.1141 18.835 72.2214 18.8572C72.2638 18.8638 72.2966 18.8717 72.3175 18.8696C72.3802 18.8641 72.5002 18.7902 72.5478 18.7335C72.6044 18.6547 72.6465 18.535 72.7593 18.135C72.8235 17.9081 72.9072 17.6581 72.9996 17.3863C73.0726 17.1375 73.0823 17.126 73.2678 17.0781C73.3823 17.0575 73.402 17.045 73.452 17.0093C73.5108 16.962 73.552 16.9481 73.6144 16.9423C73.8238 16.9241 73.9426 16.9556 73.9499 17.0396C73.9517 17.0605 73.922 17.2002 73.9047 17.2438C73.8784 17.3093 73.8784 17.3093 73.8814 17.3408C73.8775 17.415 73.7784 17.7296 73.6805 17.9384C73.6363 18.0372 73.6132 18.1341 73.6199 18.2075C73.6317 18.3435 73.7244 18.4408 73.8765 18.4908C73.9962 18.5329 74.1387 18.5944 74.129 18.6059C74.3917 18.8359 74.3917 18.8359 74.4584 18.8723C74.6017 18.9444 74.7426 18.9844 74.7947 18.9799C74.8156 18.9781 74.8459 18.965 74.8871 18.9508C74.9165 18.9272 74.9368 18.9147 74.9471 18.9138C74.9471 18.9138 74.9774 18.9005 75.0193 18.8972C75.2365 18.8462 75.3472 18.6681 75.3914 18.3266C75.4275 18.1335 75.5065 17.7154 75.6402 17.0708C75.9081 15.4338 76.0538 14.2084 76.0396 13.6826C76.0459 13.5132 76.0441 13.4923 76.0614 13.4484C76.0681 13.4057 76.0756 13.3732 76.075 13.3626L76.0602 13.3114C76.0477 13.2911 76.0229 13.2514 76.009 13.2105C75.9323 13.059 75.9211 13.0496 75.6193 12.8544C75.5641 12.8275 75.5178 12.7787 75.5156 12.7578C75.5138 12.7372 75.5323 12.7038 75.5714 12.6687C75.6184 12.6014 75.7265 12.3917 75.7217 12.339C75.7211 12.2129 75.4293 12.0063 75.0026 11.8326C74.8932 11.7896 74.805 11.7445 74.749 11.7072C74.5478 11.5772 74.5478 11.5772 74.4641 11.5841C74.3178 11.5972 74.2593 11.6551 73.9841 12.006C73.4826 12.6617 72.8754 13.5584 72.7884 13.7666C72.745 13.8757 72.719 13.9411 72.7099 13.9526C72.7011 13.9744 72.6544 14.042 72.5893 14.1423C72.4953 14.2772 72.4053 14.4535 72.339 14.6602C72.2575 14.9305 72.1578 15.119 72.0787 15.1784L72.049 15.202ZM74.5226 14.1844C74.4826 14.5675 74.4835 14.5778 74.3538 15.1481C74.2862 15.4599 74.2472 15.495 74.1017 15.5181C73.9759 15.529 73.8714 15.5381 73.7781 15.5572C73.6956 15.5747 73.6278 15.5281 73.6214 15.4547C73.6178 15.4129 73.8502 14.8123 73.9584 14.6026C74.1729 14.1623 74.3611 13.9029 74.4562 13.9053C74.499 13.912 74.5341 13.9511 74.5405 14.0244C74.5414 14.0347 74.5435 14.0557 74.5344 14.0778L74.529 14.1308L74.5226 14.1844ZM67.9869 19.0753C67.9972 19.0744 68.0742 19.1099 68.1845 19.1635C68.2508 19.1996 68.3363 19.2132 68.4096 19.2072C68.6608 19.1847 68.7878 19.0684 69.026 18.6575C69.2172 18.3135 69.4011 18.0023 69.5581 17.746C70.1096 16.8226 70.1096 16.8226 70.3693 16.2935C70.7166 15.5566 71.2647 14.2329 71.5011 13.5581C71.5681 13.3623 71.7435 12.4717 71.7441 12.3557C71.7344 12.1244 71.556 11.8978 71.186 11.6454C70.905 11.4484 70.7084 11.3705 70.5726 11.3823C70.3838 11.399 70.2705 11.5457 70.2066 11.8999C70.0993 12.3623 70.052 12.546 69.7957 13.2326C69.6929 13.5054 69.6084 13.7447 69.5675 13.875C69.4623 14.2426 69.392 14.4069 69.3399 14.4117C69.2457 14.4199 69.176 14.2257 69.1496 13.922C69.1311 13.7126 69.1272 13.5441 69.1466 13.4057C69.1851 13.0014 69.2487 12.4051 69.2454 12.3632C69.2344 12.2378 69.1535 12.1605 68.9245 12.075C68.346 11.8517 68.292 11.8348 68.0408 11.8569C67.6535 11.8908 67.4011 12.0187 67.3636 12.1905C67.3172 12.3844 67.3029 13.1872 67.3348 13.5532C67.3578 13.8151 67.4929 14.6363 67.5999 15.1332C67.7384 15.7538 67.8263 15.9147 68.1229 16.0475C68.376 16.1726 68.4096 16.1908 68.4138 16.2429C68.4151 16.2538 68.416 16.2641 68.4063 16.2756C68.3969 16.2869 68.3796 16.3305 68.3526 16.3856C68.2778 16.6135 67.6863 17.4457 67.4723 17.6541C67.0763 18.0687 67.0026 18.1914 67.0172 18.3587C67.0263 18.4632 67.1502 18.6738 67.3036 18.8608C67.3984 18.9793 67.6232 19.1387 67.6754 19.1341L67.9869 19.0753ZM63.3327 19.0753C63.343 19.0744 63.4199 19.1099 63.5305 19.1635C63.5966 19.1996 63.6821 19.2132 63.7554 19.2072C64.0066 19.1847 64.1336 19.0684 64.3718 18.6575C64.563 18.3135 64.7469 18.0023 64.9039 17.746C65.4557 16.8226 65.4557 16.8226 65.7151 16.2935C66.0623 15.5566 66.6105 14.2329 66.8469 13.5581C66.9142 13.3623 67.0893 12.4717 67.0899 12.3557C67.0802 12.1244 66.902 11.8978 66.532 11.6454C66.2508 11.4484 66.0542 11.3705 65.9184 11.3823C65.7299 11.399 65.6163 11.5457 65.5524 11.8999C65.4451 12.3623 65.3978 12.546 65.1415 13.2326C65.0387 13.5054 64.9542 13.7447 64.9133 13.875C64.8084 14.2426 64.7381 14.4069 64.6857 14.4117C64.5915 14.4199 64.522 14.2257 64.4954 13.922C64.4769 13.7126 64.473 13.5441 64.4924 13.4057C64.5308 13.0014 64.5948 12.4051 64.5911 12.3632C64.5802 12.2378 64.4993 12.1605 64.2705 12.075C63.6918 11.8517 63.6381 11.8348 63.3869 11.8569C62.9993 11.8908 62.7469 12.0187 62.7093 12.1905C62.663 12.3844 62.6487 13.1872 62.6809 13.5532C62.7039 13.8151 62.8387 14.6363 62.9457 15.1332C63.0842 15.7538 63.1721 15.9147 63.4687 16.0475C63.7221 16.1726 63.7554 16.1908 63.7596 16.2429C63.7608 16.2538 63.7618 16.2641 63.7521 16.2756C63.7427 16.2869 63.7254 16.3305 63.6984 16.3856C63.6236 16.6135 63.0321 17.4457 62.8181 17.6541C62.4221 18.0687 62.3484 18.1914 62.363 18.3587C62.3721 18.4632 62.496 18.6738 62.6493 18.8608C62.7442 18.9793 62.969 19.1387 63.0212 19.1341L63.3327 19.0753ZM57.6663 15.202C57.6466 15.2144 57.6366 15.2259 57.6366 15.2259C57.6272 15.2372 57.6179 15.2487 57.6206 15.2799C57.4827 15.7557 57.4639 15.7787 57.2006 15.9075C56.9969 15.9884 56.9015 16.102 56.903 16.2393C56.9215 16.3323 56.9388 16.4047 56.9421 16.4466C56.9682 16.6235 56.9797 16.6332 57.0088 16.7257C57.0239 16.7769 57.0378 16.8178 57.0397 16.839C57.0424 16.8702 57.0348 16.9023 57.0172 16.9463C56.7927 17.3878 56.6648 17.7366 56.6766 17.8723C56.6803 17.9144 56.72 18.0056 56.7542 18.0344C56.7891 18.0735 56.8233 18.102 56.8578 18.1308C56.8806 18.1499 56.9172 18.2099 56.966 18.2899C57.2245 18.7105 57.27 18.7487 57.6124 18.8026C57.6445 18.8108 57.7312 18.835 57.8385 18.8572C57.8812 18.8638 57.9136 18.8717 57.9345 18.8696C57.9972 18.8641 58.1175 18.7902 58.1651 18.7335C58.2215 18.6547 58.2639 18.535 58.3766 18.135C58.4409 17.9081 58.5245 17.6581 58.6166 17.3863C58.6897 17.1375 58.6994 17.126 58.8851 17.0781C58.9994 17.0575 59.0194 17.045 59.0693 17.0093C59.1281 16.962 59.1691 16.9481 59.2318 16.9423C59.4409 16.9241 59.56 16.9556 59.5672 17.0396C59.569 17.0605 59.5391 17.2002 59.5221 17.2438C59.4957 17.3093 59.4957 17.3093 59.4988 17.3408C59.4948 17.415 59.3954 17.7296 59.2975 17.9384C59.2536 18.0372 59.2306 18.1341 59.2372 18.2075C59.249 18.3435 59.3418 18.4408 59.4939 18.4908C59.6136 18.5329 59.756 18.5944 59.7463 18.6059C60.0091 18.8359 60.009 18.8359 60.0754 18.8723C60.2187 18.9444 60.36 18.9844 60.4118 18.9799C60.433 18.9781 60.4633 18.965 60.5045 18.9508C60.5339 18.9272 60.5539 18.9147 60.5645 18.9138C60.5645 18.9138 60.5948 18.9005 60.6366 18.8972C60.8536 18.8462 60.9645 18.6681 61.0084 18.3266C61.0445 18.1335 61.1239 17.7154 61.2575 17.0708C61.5254 15.4338 61.6712 14.2084 61.6569 13.6826C61.6633 13.5132 61.6615 13.4923 61.6784 13.4484C61.6854 13.4057 61.693 13.3732 61.6921 13.3626L61.6772 13.3114C61.6651 13.2911 61.6403 13.2514 61.6263 13.2105C61.5497 13.059 61.5384 13.0496 61.2363 12.8544C61.1815 12.8275 61.1351 12.7787 61.133 12.7578C61.1312 12.7372 61.1496 12.7038 61.1884 12.6687C61.2354 12.6014 61.3436 12.3917 61.339 12.339C61.3384 12.2129 61.0463 12.0063 60.62 11.8326C60.5106 11.7896 60.4221 11.7445 60.3663 11.7072C60.1651 11.5772 60.1651 11.5772 60.0815 11.5841C59.9348 11.5972 59.8766 11.6551 59.6015 12.006C59.1 12.6617 58.4927 13.5584 58.4057 13.7666C58.3624 13.8757 58.3363 13.9411 58.3272 13.9526C58.3181 13.9744 58.2715 14.042 58.2066 14.1423C58.1127 14.2772 58.0227 14.4535 57.9563 14.6602C57.8745 14.9305 57.7751 15.119 57.6957 15.1784L57.6663 15.202ZM60.14 14.1844C60.0996 14.5675 60.1006 14.5778 59.9712 15.1481C59.9036 15.4599 59.8645 15.495 59.7187 15.5181C59.5933 15.529 59.4887 15.5381 59.3951 15.5572C59.3127 15.5747 59.2451 15.5281 59.2384 15.4547C59.2351 15.4129 59.4672 14.8123 59.5754 14.6026C59.79 14.1623 59.9784 13.9029 60.0736 13.9053C60.1163 13.912 60.1515 13.9511 60.1578 14.0244C60.1584 14.0347 60.1606 14.0557 60.1518 14.0778L60.1463 14.1308L60.14 14.1844ZM53.7357 16.0729C53.7688 16.0908 53.7936 16.1308 53.797 16.1726C53.8015 16.225 53.8082 16.2984 53.807 16.4038C54.0267 17.7135 54.0266 17.7135 54.2139 18.045C54.4497 18.4463 54.9833 18.8847 55.2139 18.8644C55.2766 18.859 55.66 18.6569 55.8694 18.5226C55.9697 18.4611 55.9697 18.4611 56.2209 18.3232C56.2821 18.2965 56.3318 18.1444 56.3236 18.0502C56.3154 17.956 56.2757 17.8647 56.2163 17.7853C56.04 17.5793 55.933 17.4411 55.9063 17.3799C55.7857 17.085 55.6915 16.8508 55.6339 16.6766C55.5521 16.462 55.4191 15.9044 55.406 15.7578C55.396 15.6426 55.4254 15.619 55.716 15.4456C56.007 15.2726 56.2312 15.0635 56.5166 14.7117C56.9915 14.1108 57.1754 13.6835 57.1379 13.2544C57.1012 12.8356 56.7848 12.2308 56.4424 11.9338C56.0669 11.6187 55.4606 11.4396 54.906 11.4881C54.5921 11.5156 53.523 11.7144 53.3906 11.7684C53.2476 11.8232 53.1554 11.8523 53.1354 11.8644C52.9385 11.9026 52.8873 11.9178 52.8576 11.9414C52.7982 11.9887 52.7982 11.9887 52.7382 12.026C52.5879 12.1129 52.5779 12.1241 52.5945 12.3126C52.6127 12.522 52.673 12.7278 52.7515 12.8999C52.8273 13.0408 52.8667 13.1326 52.8706 13.1741C52.8758 13.2372 52.843 13.3456 52.7818 13.4881C52.7203 13.6302 52.6367 13.8802 52.537 14.1844C52.5206 14.2384 52.3888 14.6614 52.1294 15.4326C51.7009 16.6829 51.4436 17.602 51.4603 17.7905C51.4685 17.8841 51.4685 17.8841 51.7594 18.3123C51.9267 18.5405 51.9609 18.569 52.1521 18.5841C52.4279 18.602 52.4712 18.6193 52.6145 18.6914C52.8476 18.8184 52.9139 18.8547 52.9557 18.8508C53.0915 18.839 53.2436 18.4044 53.413 17.5669C53.4924 17.1484 53.5418 16.8699 53.5685 16.8147C53.6006 16.696 53.6467 16.5023 53.6788 16.2672C53.6897 16.1502 53.7154 16.085 53.7357 16.0729ZM55.163 13.1002C55.3512 13.0841 55.4509 13.1384 55.4621 13.2641C55.473 13.3896 55.2551 13.6723 55.0185 13.862C54.7518 14.0644 54.4227 14.2829 54.36 14.2884C54.3391 14.2905 54.3154 14.2605 54.3124 14.2293C54.3082 14.1769 54.333 14.1011 54.4212 13.9032C54.4748 13.7932 54.5179 13.6841 54.5248 13.6414C54.6354 13.2199 54.6354 13.2199 54.6851 13.1841C54.7251 13.1596 54.8909 13.1241 55.163 13.1002ZM48.5724 11.5353C48.3652 11.5744 48.3652 11.5744 47.4679 12.5284C46.9846 13.0347 46.3816 14.2157 46.1434 15.112C45.9758 15.7278 45.8746 16.7384 45.9249 17.3141C45.9652 17.7747 46.0861 17.9538 46.6858 18.4184C47.2625 18.8632 47.5491 19.0072 47.8318 18.9823C48.4806 18.9256 49.4791 18.1635 50.0761 17.2675C50.7758 16.2253 51.1685 14.8093 51.0724 13.7105C51.0218 13.1347 50.8524 12.6438 50.5458 12.1538C50.3994 11.9241 50.2988 11.859 50.0997 11.8766C50.0161 11.8838 49.9133 11.9138 49.8436 11.962C49.613 12.0981 49.613 12.0981 49.5712 12.102C49.5085 12.1072 49.4627 12.0693 49.1936 11.7657C49.0185 11.5702 48.8609 11.4575 48.7667 11.4657C48.7458 11.4675 48.7458 11.4675 48.7152 11.4808L48.5724 11.5353ZM49.0152 13.585C49.1203 13.576 49.207 13.7263 49.2139 13.9257C49.2297 14.2305 49.1558 14.5847 48.9831 15.022C48.8285 15.4253 48.4755 16.216 48.3934 16.3602C47.8579 17.2296 47.8482 17.2408 47.7543 17.249C47.7015 17.2535 47.664 17.1832 47.6558 17.0893C47.6412 16.9217 47.6631 16.8141 47.8491 16.165C48.1697 15.0087 48.1697 15.0087 48.4676 14.4341C48.7894 13.7732 48.9109 13.5938 49.0152 13.585Z" fill="#F6F8FA"/>
</svg>
