<svg width="327" height="327" viewBox="0 0 327 327" fill="none" xmlns="http://www.w3.org/2000/svg">
<path d="M250.076 239.475C264.929 250.593 282.122 251.587 282.122 251.587C282.122 251.587 287.289 247.382 291.717 239.364C284.228 241.732 263.83 246.192 250.698 229.927C251.352 230.123 282.672 239.201 297.642 220.634C299.82 200.536 282.122 184.951 282.122 184.951C279.467 200.85 269.821 212.38 257.447 216.278C249.494 218.776 242.215 214.97 242.215 214.97L236.186 224.623C236.535 226.997 237.163 229.322 238.056 231.549C239.312 234.283 245.577 243.465 245.695 250.044C245.812 256.623 239.737 264.34 239.737 264.34L250.796 267.813C259.972 255.564 253.66 245.087 250.076 239.475Z" fill="#EBEBEB"/>
<path opacity="0.2" d="M237.788 230.784C240.613 229.011 244.38 226.408 246.224 224.126C247.532 222.524 248.186 219.28 248.468 216.873C246.329 216.558 244.248 215.928 242.294 215.003L236.271 224.656C236.582 226.742 237.09 228.793 237.788 230.784Z" fill="black"/>
<path opacity="0.2" d="M288.786 190.746C286.131 201.013 279.447 210.673 270.003 215.755C269.035 216.193 267.943 216.683 266.969 217.063C267.858 216.474 268.846 215.859 269.748 215.303C278.427 209.274 284.529 200.261 288.786 190.726V190.746Z" fill="black"/>
<path opacity="0.2" d="M271.985 225.296C276.829 224.544 281.472 222.828 285.642 220.252C289.811 217.675 293.422 214.289 296.262 210.294C296.641 209.757 297.034 209.228 297.439 208.691C296.632 210.528 295.646 212.28 294.496 213.923C289.421 220.954 280.723 225.532 272.005 225.31L271.985 225.296Z" fill="black"/>
<path opacity="0.2" d="M279.068 220.333C286.052 216.107 291.715 210.014 295.418 202.74C293.371 210.758 287.001 217.782 279.068 220.333Z" fill="black"/>
<path opacity="0.2" d="M244.347 230.862C245.949 232.857 247.368 235.205 248.781 237.33C249.252 238.056 249.742 238.769 250.207 239.567C248.593 238.709 247.238 237.436 246.283 235.878C245.262 234.377 244.602 232.66 244.353 230.862H244.347Z" fill="black"/>
<path d="M269.853 148.654C270.085 149.589 270.416 150.497 270.84 151.362C270.141 151.632 269.469 151.967 268.833 152.362C268.25 152.736 267.689 153.142 267.152 153.579C264.451 155.94 262.94 159.53 263.293 163.853C261.764 164.093 260.292 164.611 258.951 165.384C257.183 166.423 255.71 167.897 254.671 169.665C253.632 171.433 253.061 173.438 253.012 175.488C251.393 175.611 249.817 176.067 248.382 176.829C246.328 177.957 244.632 179.638 243.484 181.681C242.132 183.909 241.665 186.562 242.176 189.117C241.383 189.501 240.633 189.968 239.939 190.51C239.269 191.06 238.651 191.67 238.095 192.335C236.292 194.554 235.306 197.324 235.302 200.183C235.3 201.441 235.503 202.692 235.904 203.885L235.963 204.061C236.021 204.225 236.087 204.388 236.152 204.552C236.218 204.715 236.29 204.872 236.362 205.036C235.962 205.306 235.58 205.601 235.217 205.918L234.91 206.193C234.89 206.217 234.868 206.238 234.844 206.259C234.707 206.389 234.57 206.527 234.445 206.664C234.321 206.801 234.158 206.971 234.027 207.135C233.896 207.298 233.759 207.462 233.634 207.639C233.548 207.75 233.467 207.866 233.392 207.985C233.328 208.068 233.269 208.156 233.216 208.247L232.922 208.731L232.536 209.601L246.518 212.871L247.009 212.171L247.068 212.086V212.053C247.748 211.05 248.269 209.946 248.611 208.783C248.743 208.32 248.839 207.848 248.899 207.37C248.926 207.228 248.943 207.084 248.951 206.939C248.964 206.867 248.964 206.794 248.951 206.723C248.951 206.514 248.951 206.298 248.99 206.069C249.01 205.51 248.99 204.951 248.931 204.395C248.865 203.754 248.744 203.119 248.572 202.498C248.513 202.289 248.454 202.08 248.382 201.844C248.247 201.415 248.088 200.993 247.905 200.582L248.389 200.314C248.908 200.018 249.404 199.684 249.873 199.313C250.469 198.87 251.023 198.373 251.528 197.829C251.931 197.401 252.305 196.947 252.646 196.468C252.973 196.024 253.26 195.551 253.503 195.056C253.761 194.536 253.969 193.993 254.124 193.434C254.28 192.901 254.377 192.353 254.412 191.799C254.445 191.248 254.445 190.695 254.412 190.144C254.454 189.467 254.454 188.787 254.412 188.11C255.192 188.046 255.965 187.91 256.721 187.705C257.463 187.489 258.183 187.204 258.872 186.854C260.81 185.885 262.441 184.399 263.586 182.561C264.731 180.722 265.345 178.602 265.36 176.436C267.021 176.208 268.616 175.636 270.043 174.755C271.232 174.006 272.288 173.065 273.169 171.969C274.143 170.732 274.861 169.314 275.281 167.797C275.497 167.04 275.641 166.265 275.713 165.482C275.774 164.681 275.75 163.877 275.641 163.081C276.473 162.81 277.267 162.432 278.002 161.957C278.733 161.457 279.417 160.89 280.042 160.263C280.304 159.988 280.552 159.707 280.801 159.426C281.049 159.144 281.259 158.772 281.455 158.477C281.884 157.824 282.256 157.135 282.567 156.417C282.898 155.598 283.139 154.745 283.286 153.873C283.457 153.012 283.519 152.133 283.469 151.257V150.924V150.42C283.469 150.093 283.469 149.766 283.469 149.419C283.479 148.805 283.411 148.192 283.266 147.595C283.045 146.535 282.546 145.554 281.821 144.75C282.475 142.605 281.945 139.936 280.402 137.471L279.604 136.222C279.362 135.855 279.107 135.515 278.845 135.182C278.327 134.556 277.751 133.98 277.125 133.462C275.867 132.412 274.4 131.642 272.821 131.203C271.243 130.765 269.589 130.667 267.969 130.918C267.377 129.307 266.44 127.845 265.223 126.634C264.219 125.619 263.046 124.787 261.756 124.175C260.341 123.507 258.806 123.127 257.243 123.057C255.679 122.986 254.117 123.226 252.646 123.763C251.779 122.281 250.59 121.014 249.167 120.055C247.975 119.234 246.646 118.631 245.243 118.276C243.671 117.877 242.034 117.803 240.432 118.06C238.831 118.316 237.299 118.897 235.93 119.767C234.683 118.565 233.157 117.69 231.489 117.223L231.653 118.904L232.823 130.597L232.98 132.187C234.106 132.455 235.268 132.539 236.42 132.435C238.362 132.255 240.239 131.642 241.914 130.643C242.726 131.924 243.755 133.053 244.955 133.978C246.53 135.158 248.373 135.93 250.318 136.224C252.264 136.518 254.252 136.327 256.106 135.666C256.672 137.089 257.489 138.398 258.519 139.531C259.798 140.942 261.403 142.017 263.195 142.661C264.987 143.305 266.909 143.499 268.793 143.226C268.872 143.998 269.003 144.717 269.12 145.371C269.199 145.705 269.258 146.025 269.33 146.319L269.421 146.745C269.439 146.807 269.452 146.87 269.46 146.934C269.46 146.934 269.781 148.223 269.853 148.654Z" fill="#EBEBEB"/>
<path opacity="0.1" d="M235.132 121.199C237.399 123.728 239.4 126.482 241.103 129.42C239.871 130.171 238.499 130.662 237.071 130.865C235.643 131.067 234.189 130.976 232.797 130.597L232.954 132.187C234.08 132.455 235.241 132.539 236.394 132.435C238.336 132.255 240.213 131.642 241.888 130.643C242.699 131.924 243.728 133.053 244.929 133.978C246.504 135.158 248.346 135.93 250.292 136.224C252.238 136.518 254.226 136.327 256.079 135.666C256.645 137.089 257.463 138.398 258.493 139.531C259.774 140.946 261.384 142.023 263.18 142.668C264.977 143.312 266.905 143.504 268.793 143.226C268.872 143.998 269.002 144.717 269.12 145.371C269.199 145.705 269.257 146.025 269.329 146.319L269.421 146.745C269.438 146.807 269.451 146.87 269.46 146.934C269.46 146.934 269.768 148.242 269.84 148.661C270.072 149.596 270.403 150.503 270.827 151.368C270.128 151.638 269.456 151.973 268.819 152.369C268.236 152.742 267.675 153.148 267.138 153.585C264.437 155.946 262.927 159.537 263.28 163.86C261.751 164.099 260.279 164.618 258.937 165.39C257.17 166.43 255.697 167.904 254.657 169.672C253.618 171.44 253.047 173.444 252.999 175.494C251.38 175.617 249.803 176.074 248.369 176.835C246.315 177.964 244.618 179.645 243.47 181.688C242.119 183.915 241.652 186.569 242.162 189.124C241.37 189.508 240.62 189.975 239.926 190.517C239.255 191.066 238.638 191.677 238.081 192.341C236.278 194.56 235.293 197.331 235.289 200.189C235.286 201.448 235.489 202.698 235.89 203.891L235.949 204.068C236.008 204.231 236.073 204.395 236.139 204.558C236.204 204.722 236.276 204.879 236.348 205.042C236.1 205.212 235.858 205.389 235.629 205.578C235.481 205.686 235.339 205.802 235.204 205.925C234.934 206.16 234.676 206.409 234.432 206.671C234.288 206.821 234.144 206.978 234.013 207.141C233.883 207.305 233.745 207.468 233.621 207.645C233.534 207.756 233.454 207.872 233.379 207.992C233.314 208.075 233.255 208.162 233.202 208.253L232.908 208.737L232.522 209.607L246.505 212.877L246.995 212.177L247.054 212.092V212.06C247.735 211.056 248.256 209.953 248.598 208.79C248.663 208.561 248.715 208.332 248.761 208.103C248.863 207.651 248.928 207.192 248.957 206.729C248.957 206.625 248.957 206.52 248.957 206.409C248.967 206.305 248.967 206.199 248.957 206.095C248.957 205.788 248.957 205.48 248.957 205.166C248.967 205.042 248.967 204.918 248.957 204.794C248.957 204.669 248.957 204.545 248.925 204.421C248.892 204.297 248.872 203.976 248.833 203.767C248.773 203.399 248.695 203.034 248.598 202.675C248.565 202.522 248.524 202.371 248.473 202.223C248.441 202.119 248.414 202.014 248.375 201.909C248.24 201.48 248.081 201.059 247.898 200.647L248.382 200.379C248.901 200.084 249.398 199.749 249.866 199.378C250.462 198.936 251.016 198.439 251.521 197.894C251.924 197.467 252.298 197.012 252.639 196.534C252.966 196.089 253.253 195.616 253.496 195.121C253.754 194.601 253.962 194.058 254.117 193.499C254.273 192.966 254.37 192.418 254.405 191.864C254.438 191.313 254.438 190.76 254.405 190.209C254.447 189.532 254.447 188.853 254.405 188.175C255.185 188.111 255.958 187.976 256.714 187.77C257.456 187.554 258.176 187.27 258.865 186.92C260.803 185.951 262.434 184.465 263.579 182.626C264.724 180.787 265.338 178.668 265.353 176.502C267.014 176.274 268.609 175.701 270.036 174.821C271.225 174.072 272.281 173.13 273.162 172.035C274.136 170.798 274.854 169.379 275.274 167.862C275.49 167.106 275.634 166.331 275.706 165.547C275.767 164.747 275.743 163.942 275.634 163.147C276.466 162.875 277.26 162.497 277.995 162.022C278.727 161.522 279.41 160.955 280.035 160.328C280.297 160.053 280.545 159.772 280.794 159.491C281.043 159.21 281.252 158.837 281.448 158.543C281.877 157.889 282.249 157.2 282.56 156.483C282.891 155.663 283.132 154.81 283.279 153.939C283.451 153.078 283.512 152.199 283.462 151.323V150.989V150.42C283.462 150.093 283.462 149.766 283.462 149.419C283.472 148.805 283.404 148.192 283.26 147.595C283.038 146.535 282.539 145.554 281.814 144.75C282.468 142.605 281.939 139.936 280.395 137.471L279.597 136.222C279.355 135.855 279.1 135.515 278.839 135.182C278.32 134.556 277.745 133.98 277.119 133.462C275.861 132.412 274.393 131.642 272.815 131.203C271.236 130.765 269.582 130.667 267.963 130.918C267.37 129.307 266.433 127.845 265.216 126.634C264.212 125.619 263.039 124.787 261.75 124.175C260.334 123.507 258.799 123.127 257.236 123.057C255.672 122.986 254.11 123.226 252.639 123.763C251.773 122.281 250.583 121.014 249.16 120.055C247.968 119.234 246.639 118.631 245.236 118.276C243.664 117.877 242.027 117.803 240.426 118.06C238.824 118.316 237.292 118.897 235.923 119.767C234.676 118.565 233.15 117.69 231.482 117.223L231.646 118.904C232.974 119.381 234.169 120.168 235.132 121.199ZM242.849 203.152C244.105 202.498 245.362 201.875 246.623 201.282C247.045 202.27 247.322 203.314 247.447 204.382C247.535 205.16 247.535 205.945 247.447 206.723C247.237 208.504 246.56 210.199 245.485 211.634H245.563L234.445 209.018C235.248 207.766 236.332 206.718 237.61 205.958C239.363 205.016 241.103 204.048 242.849 203.152ZM245.72 189.497C246.531 189.218 247.356 188.982 248.192 188.79L249.409 188.522C249.821 188.457 250.233 188.404 250.632 188.352L251.802 188.254L253.025 188.208C253.025 189.15 253.136 189.994 253.097 190.72C253.082 191.11 253.04 191.499 252.973 191.884C252.907 192.256 252.803 192.629 252.698 193.022C252.178 194.614 251.28 196.056 250.082 197.227C249.191 198.124 248.154 198.863 247.015 199.411C246.923 199.464 246.825 199.503 246.734 199.549C243.693 200.915 240.671 202.492 237.682 204.192C237.504 203.797 237.353 203.391 237.231 202.975C236.74 201.238 236.698 199.405 237.111 197.647C237.524 195.89 238.378 194.266 239.592 192.93C240.602 191.804 241.854 190.923 243.254 190.353C244.046 190.052 244.896 189.758 245.72 189.497ZM253.673 176.946C257.054 176.881 260.442 176.822 263.862 176.613C263.757 179.266 262.652 181.782 260.767 183.653C258.883 185.524 256.36 186.612 253.705 186.697C252.855 186.697 252.051 186.743 251.227 186.802C250.389 186.849 249.555 186.945 248.728 187.09C247.873 187.231 247.027 187.428 246.197 187.678C245.334 187.914 244.49 188.189 243.666 188.489C243.466 187.418 243.482 186.317 243.712 185.252C243.825 184.673 244.005 184.109 244.248 183.571C244.463 183.023 244.733 182.497 245.053 182.002C245.602 181.091 246.288 180.27 247.087 179.569C247.822 178.912 248.648 178.363 249.539 177.94C250.835 177.33 252.241 176.991 253.673 176.946ZM264.137 165.233C265.778 165.057 267.465 164.854 269.133 164.579C270.801 164.304 272.521 163.991 274.202 163.572C274.377 165.597 273.967 167.63 273.02 169.428C272.072 171.227 270.628 172.715 268.859 173.716C267.584 174.434 266.17 174.869 264.712 174.991C261.285 175.22 257.917 175.324 254.536 175.383C254.605 173.521 255.166 171.71 256.164 170.136C257.161 168.562 258.558 167.281 260.213 166.423C261.424 165.783 262.747 165.379 264.11 165.233H264.137ZM272.03 152.415C272.805 152.154 273.565 151.851 274.306 151.506C275.058 151.172 275.824 150.799 276.589 150.4C277.386 149.999 278.131 149.5 278.806 148.916C279.629 148.219 280.37 147.431 281.016 146.568C281.176 146.83 281.307 147.109 281.409 147.399C281.535 147.704 281.627 148.022 281.683 148.347C281.795 149.079 281.87 149.817 281.906 150.557C282.054 151.667 282.001 152.795 281.749 153.886C281.651 154.435 281.509 154.976 281.324 155.502C281.1 156.002 280.846 156.489 280.565 156.96C280.056 157.909 279.393 158.766 278.603 159.498C277.5 160.558 276.152 161.328 274.679 161.741C272.985 162.192 271.344 162.591 269.656 162.872C267.969 163.153 266.386 163.428 264.679 163.605C264.507 161.786 264.795 159.953 265.517 158.275C265.826 157.491 266.25 156.757 266.772 156.097C267.281 155.426 267.87 154.82 268.525 154.292C268.767 154.102 269.029 153.912 269.303 153.736C269.578 153.559 269.826 153.389 270.101 153.232C270.708 152.9 271.345 152.626 272.004 152.415H272.03ZM268.479 132.396C270.557 132.122 272.668 132.528 274.496 133.553C275.469 134.08 276.352 134.758 277.112 135.561C277.515 135.965 277.883 136.402 278.211 136.869C278.385 137.109 278.547 137.358 278.695 137.615C278.858 137.916 279.035 138.21 279.198 138.511C280.297 140.473 280.67 142.552 280.133 144.227C279.854 145.174 279.374 146.05 278.727 146.797C278.064 147.479 277.327 148.084 276.53 148.602C275.797 149.02 275.157 149.439 274.372 149.799C273.587 150.158 272.868 150.453 272.135 150.78C271.763 149.986 271.476 149.155 271.278 148.301C271.233 148.125 271.18 147.935 271.121 147.739C271.121 147.739 270.611 145.489 270.579 145.227C270.546 144.966 270.461 144.652 270.415 144.344C270.3 143.696 270.228 143.04 270.199 142.382C269.969 139.001 269.384 135.654 268.453 132.396H268.479ZM253.437 125.117C255.372 124.487 257.447 124.431 259.413 124.954C261.378 125.477 263.151 126.558 264.516 128.066C265.521 129.163 266.267 130.47 266.7 131.892C267.674 135.126 268.344 138.443 268.702 141.8C266.949 142.038 265.164 141.824 263.517 141.178C261.87 140.533 260.415 139.477 259.29 138.112C258.409 137.062 257.731 135.858 257.289 134.561C256.175 131.338 254.872 128.185 253.385 125.117H253.437ZM237.087 120.905C238.882 119.859 240.946 119.367 243.02 119.492C245.094 119.616 247.085 120.351 248.741 121.605C249.939 122.492 250.917 123.642 251.599 124.966C253.125 127.992 254.458 131.111 255.589 134.305C253.882 134.891 252.053 135.026 250.278 134.699C248.504 134.371 246.844 133.591 245.458 132.435C244.409 131.563 243.523 130.511 242.842 129.329C241.173 126.345 239.226 123.524 237.028 120.905H237.087Z" fill="black"/>
<path opacity="0.2" d="M246.519 212.825L247.009 212.125C247.03 212.098 247.05 212.069 247.068 212.04V212.007C247.751 211.005 248.271 209.901 248.612 208.737C249.336 206.019 249.094 203.134 247.925 200.575L248.415 200.307C247.601 199.597 246.604 199.128 245.538 198.953C243.497 198.875 239.109 201.609 235.891 203.852C236.022 204.244 236.175 204.628 236.349 205.003C234.929 205.951 233.749 207.216 232.902 208.698L232.517 209.568L246.519 212.825Z" fill="black"/>
<path d="M229.239 217.507C229.239 217.507 228.585 213.583 229.893 211.543C231.201 209.502 239.331 202.616 244.595 203.041C247.865 203.309 250.847 207.92 250.867 210.346C250.887 212.772 246.152 216.553 246.152 216.553C246.152 216.553 246.296 220.208 245.295 222.399C244.294 224.59 237.447 228.423 234.779 228.475C232.11 228.527 227.532 224.002 228.069 220.692C228.23 219.56 228.629 218.475 229.239 217.507Z" fill="#EBEBEB"/>
<path opacity="0.2" d="M246.126 216.572C245.014 215.526 243.457 215.264 242.038 214.839L240.952 214.604C239.907 214.403 238.83 214.439 237.8 214.708C235.593 215.164 233.423 215.78 231.306 216.552C230.586 216.798 229.893 217.118 229.239 217.507C229.739 216.899 230.341 216.384 231.018 215.983C233.032 214.755 235.245 213.889 237.558 213.426C238.764 213.134 240.025 213.157 241.221 213.492C243.019 214.087 245.177 214.8 246.132 216.572H246.126Z" fill="black"/>
<path d="M70.9455 44.871C53.8957 37.5985 36.9375 40.6658 36.9375 40.6658C36.9375 40.6658 32.8958 45.9763 30.4825 54.8118C37.1991 50.7439 55.9754 41.5945 72.5936 54.2821C71.8938 54.2821 39.3311 52.8106 29.168 74.3926C31.784 94.4311 52.6662 105.405 52.6662 105.405C51.4955 89.3299 58.1467 75.8444 69.2516 69.1409C76.3868 64.8311 84.359 66.7931 84.359 66.7931L87.9364 55.989C87.044 53.7712 85.8938 51.6661 84.5094 49.7171C82.6455 47.3562 74.3921 39.9071 72.7374 33.5503C71.0828 27.1934 75.1507 18.2467 75.1507 18.2467L63.5553 17.5011C57.5516 31.5686 66.1386 40.2603 70.9455 44.871Z" fill="#EBEBEB"/>
<path opacity="0.2" d="M84.9348 50.4169C82.6065 52.804 79.5654 56.244 78.3098 58.86C77.4203 60.7239 77.5707 64.0201 77.8454 66.4333C79.9965 66.235 82.1652 66.3562 84.2808 66.793L87.8582 55.989C87.0625 54.0432 86.0836 52.1774 84.9348 50.4169Z" fill="black"/>
<path opacity="0.2" d="M44.8252 101.37C44.9952 90.7491 49.1939 79.7881 57.1793 72.6333C58.0164 71.9793 58.9581 71.2468 59.7953 70.6321C59.0693 71.4038 58.2584 72.2409 57.5128 72.993C50.515 80.8868 46.7153 91.0565 44.8252 101.37Z" fill="black"/>
<path opacity="0.2" d="M52.974 63.8173C48.4521 65.6908 44.3506 68.4496 40.9104 71.9312C37.4703 75.4129 34.761 79.5474 32.9419 84.0913C32.7 84.7061 32.4449 85.3143 32.1768 85.9291C32.529 83.9568 33.0767 82.0245 33.8118 80.1608C37.0818 72.1362 44.4523 65.6355 52.974 63.8108V63.8173Z" fill="black"/>
<path opacity="0.2" d="M47.29 70.3116C41.5082 76.0582 37.4488 83.3072 35.5703 91.2396C35.6619 82.9665 40.1941 74.628 47.29 70.3116Z" fill="black"/>
<path opacity="0.2" d="M78.5448 51.895C76.5174 50.3581 74.5554 48.3961 72.7111 46.6499C72.0571 46.0547 71.4031 45.4858 70.7949 44.8121C72.5695 45.2647 74.1908 46.1838 75.4906 47.4739C76.832 48.6958 77.8766 50.208 78.5448 51.895Z" fill="black"/>
<path d="M58.8598 135.888C58.8891 136.776 59.0364 137.655 59.298 138.504L59.3961 138.825L59.5138 139.302C59.5988 139.622 59.6773 139.956 59.7623 140.276C59.9038 140.878 60.1237 141.459 60.4163 142.003C60.8825 142.978 61.5976 143.813 62.4895 144.423C62.3522 146.666 63.5098 149.132 65.5895 151.166L66.662 152.192C66.976 152.487 67.316 152.761 67.643 153.016C68.2926 153.507 68.9892 153.932 69.7228 154.285C71.1936 155.009 72.8017 155.412 74.4403 155.466C76.0788 155.52 77.71 155.225 79.2254 154.599C80.0431 155.824 81.0862 156.883 82.2992 157.719L82.6589 156.071L85.1179 144.953L85.458 143.422C83.946 142.59 82.2673 142.105 80.5443 142.003C78.8212 141.901 77.0972 142.185 75.4976 142.834C75.2425 142.101 74.9482 141.434 74.6735 140.826C74.5231 140.518 74.3858 140.224 74.2484 139.956L74.0588 139.564C74.0588 139.505 73.9868 139.433 73.9738 139.387C73.9607 139.341 73.3721 138.203 73.1955 137.798C72.7546 136.941 72.2194 136.136 71.5997 135.398C72.2155 134.971 72.7912 134.49 73.3198 133.959C73.7851 133.456 74.2218 132.928 74.6278 132.376C76.6879 129.446 77.3157 125.594 75.9358 121.481C77.3651 120.887 78.6731 120.036 79.7944 118.969C81.2658 117.542 82.3491 115.763 82.9419 113.8C83.5346 111.838 83.6173 109.756 83.1821 107.753C84.7263 107.251 86.1494 106.434 87.3611 105.353C89.0952 103.769 90.3485 101.729 90.9778 99.4669C91.7555 96.9812 91.5783 94.2948 90.4807 91.9328C91.1612 91.3753 91.7796 90.746 92.325 90.0558C92.8465 89.3641 93.304 88.6264 93.6919 87.8518C94.5796 86.003 94.9902 83.9613 94.8863 81.913C94.7823 79.8647 94.1671 77.8751 93.0967 76.1256C92.8763 75.7765 92.6361 75.4402 92.3773 75.1184C92.5147 74.968 92.6389 74.8176 92.7632 74.6672V74.6345L92.7959 74.5822C92.8283 74.5467 92.8589 74.5096 92.8874 74.471V74.4317L92.9463 74.3533L93.0182 74.2552C93.0981 74.157 93.1724 74.0544 93.2406 73.9478C93.2879 73.8872 93.3316 73.8239 93.3714 73.7581L93.5414 73.4965C93.6003 73.4115 93.6526 73.3265 93.7049 73.2349C93.7638 73.1368 93.8227 73.0387 93.875 72.9341C93.8926 72.9094 93.908 72.8831 93.9208 72.8556C93.9552 72.7966 93.9858 72.7354 94.0123 72.6725C94.0581 72.594 94.0973 72.509 94.1366 72.424L94.3328 71.9858C94.3982 71.8288 94.4636 71.6653 94.5224 71.4953L94.6009 71.2925C94.6532 71.1225 94.7121 70.9394 94.7644 70.7628L94.9345 69.821L80.5857 69.9715L80.2718 70.7693C80.2536 70.7974 80.2403 70.8284 80.2325 70.8609V70.9001C79.8044 72.0316 79.5572 73.2234 79.5001 74.4317C79.5001 74.7064 79.5001 74.9811 79.5001 75.2492C79.4933 75.3516 79.4933 75.4543 79.5001 75.5566C79.4966 75.598 79.4966 75.6395 79.5001 75.6809C79.5001 75.779 79.5001 75.8705 79.5001 75.9621C79.5001 76.1583 79.5458 76.361 79.5785 76.5572C79.5785 76.6226 79.5785 76.6946 79.5785 76.76C79.5918 76.8614 79.6115 76.9619 79.6374 77.0608C79.6343 77.0869 79.6343 77.1132 79.6374 77.1393C79.6832 77.342 79.729 77.5382 79.7813 77.7344L79.8205 77.8783C79.8728 78.068 79.9317 78.2642 79.9971 78.4538C80.0094 78.5006 80.0247 78.5464 80.0429 78.5912C80.1017 78.7612 80.1671 78.9313 80.2325 79.1013C80.2979 79.2713 80.4091 79.5264 80.5072 79.7553C80.6053 79.9842 80.71 80.1804 80.8211 80.4093C80.9323 80.6382 81.05 80.8279 81.1743 81.0633C81.2528 81.2006 81.3378 81.338 81.4294 81.4688L81.4948 81.5669L81.5863 81.7042L81.9722 82.234L81.5602 82.6133C81.125 83.0187 80.7206 83.4559 80.3503 83.9213C79.5122 84.9535 78.8312 86.1039 78.3294 87.3352C78.1125 87.8458 77.9439 88.3757 77.8258 88.9178C77.6993 89.483 77.6271 90.059 77.61 90.6379C77.5833 91.1937 77.6184 91.7509 77.7146 92.299C77.8123 92.8417 77.9389 93.3787 78.094 93.9079C78.226 94.5711 78.3964 95.2262 78.6041 95.8699C77.1205 96.3526 75.7469 97.1238 74.5624 98.1392C72.9116 99.5403 71.6792 101.37 71.0008 103.426C70.3223 105.482 70.2241 107.685 70.7168 109.794C69.1573 110.409 67.743 111.342 66.5639 112.534C65.589 113.546 64.785 114.71 64.1834 115.98C63.5279 117.421 63.1656 118.977 63.1174 120.558C63.0864 121.343 63.128 122.129 63.2416 122.906C63.3779 123.699 63.5971 124.475 63.8956 125.221C63.1536 125.684 62.4725 126.238 61.8682 126.869C61.2756 127.531 60.7437 128.245 60.279 129.002C60.0893 129.329 59.9128 129.656 59.7427 129.989C59.5727 130.323 59.4484 130.715 59.3242 131.075C59.0616 131.811 58.8625 132.568 58.729 133.338C58.6806 134.19 58.7245 135.045 58.8598 135.888Z" fill="#EBEBEB"/>
<path opacity="0.1" d="M58.8592 135.888C58.8885 136.776 59.0358 137.655 59.2974 138.504L59.3955 138.825L59.5132 139.302C59.5983 139.622 59.6767 139.956 59.7617 140.277C59.9032 140.878 60.1231 141.459 60.4157 142.003C60.8819 142.978 61.597 143.813 62.4889 144.423C62.3516 146.666 63.5092 149.132 65.5889 151.166L66.6615 152.192C66.9754 152.487 67.3155 152.761 67.6425 153.016C68.292 153.507 68.9886 153.932 69.7222 154.285C71.193 155.009 72.8012 155.412 74.4397 155.466C76.0782 155.52 77.7094 155.225 79.2248 154.599C80.0426 155.824 81.0856 156.883 82.2986 157.719L82.6583 156.071C81.6978 155.318 80.886 154.393 80.2647 153.343C78.5586 150.43 77.1267 147.365 75.9875 144.187C77.4713 143.607 79.0686 143.375 80.6561 143.51C82.2437 143.645 83.7789 144.143 85.1435 144.966L85.4836 143.435C83.9715 142.603 82.2929 142.118 80.5698 142.016C78.8468 141.914 77.1227 142.198 75.5232 142.847C75.2681 142.114 74.9738 141.447 74.6991 140.839C74.5487 140.532 74.4114 140.237 74.274 139.969L74.0844 139.577C74.0844 139.518 74.0124 139.446 73.9993 139.4C73.9863 139.354 73.3977 138.216 73.2211 137.811C72.7802 136.954 72.245 136.149 71.6253 135.411C72.2411 134.984 72.8168 134.503 73.3453 133.972C73.8107 133.469 74.2474 132.941 74.6533 132.389C76.7134 129.459 77.3413 125.607 75.9613 121.494C77.3907 120.9 78.6987 120.049 79.8199 118.982C81.2914 117.555 82.3747 115.776 82.9674 113.813C83.5602 111.851 83.6429 109.77 83.2077 107.766C84.7519 107.264 86.175 106.447 87.3867 105.366C89.1208 103.782 90.3741 101.743 91.0033 99.48C91.7811 96.9943 91.6038 94.3079 90.5063 91.9459C91.1868 91.3884 91.8051 90.7591 92.3506 90.0689C92.8721 89.3772 93.3296 88.6395 93.7174 87.8649C94.6052 86.0161 95.0158 83.9744 94.9118 81.9261C94.8079 79.8778 94.1926 77.8882 93.1223 76.1387C92.9019 75.7896 92.6617 75.4533 92.4029 75.1316C92.5402 74.9811 92.6645 74.8307 92.7888 74.6803C92.8126 74.6536 92.8344 74.6252 92.8541 74.5953C92.8866 74.5599 92.9172 74.5227 92.9457 74.4841C93.263 74.0843 93.5515 73.6625 93.809 73.2219C93.8679 73.1238 93.9267 73.0257 93.979 72.921C94.0299 72.8366 94.0758 72.7493 94.1164 72.6594C94.1622 72.581 94.2014 72.4959 94.2406 72.4109C94.42 72.039 94.5773 71.6569 94.7115 71.2664C94.7638 71.0964 94.8227 70.9133 94.875 70.7367L95.0451 69.7949L80.6963 69.9453L80.3824 70.7432C80.3642 70.7713 80.3509 70.8023 80.3431 70.8348V70.874C79.915 72.0054 79.6678 73.1973 79.6107 74.4056C79.5986 74.8223 79.6095 75.2393 79.6434 75.6548C79.6434 75.7529 79.6434 75.8444 79.6434 75.936C79.6434 76.1322 79.6891 76.3349 79.7218 76.5311C79.7545 76.7273 79.7872 76.9235 79.8265 77.1132C79.8722 77.3028 79.9115 77.4925 79.9638 77.6756C79.9707 77.725 79.9839 77.7734 80.0031 77.8195C80.0554 78.0092 80.1142 78.2054 80.1796 78.395C80.1919 78.4417 80.2072 78.4876 80.2254 78.5324C80.2843 78.7024 80.3497 78.8724 80.4151 79.0425C80.4805 79.2125 80.5916 79.4676 80.6897 79.6965C80.7878 79.9254 80.8925 80.1216 81.0037 80.3505C81.1149 80.5794 81.2326 80.769 81.3568 81.0045C81.6044 81.422 81.8774 81.8239 82.1743 82.2078L81.7623 82.5872C81.3272 82.9926 80.9228 83.4298 80.5524 83.8952C79.7143 84.9274 79.0334 86.0778 78.5316 87.309C78.3147 87.8197 78.1461 88.3496 78.028 88.8917C77.9015 89.4569 77.8292 90.0328 77.8122 90.6117C77.7855 91.1676 77.8206 91.7248 77.9168 92.2729C78.0145 92.8156 78.1411 93.3526 78.2961 93.8817C78.4282 94.545 78.5985 95.2001 78.8062 95.8437C77.3226 96.3265 75.949 97.0977 74.7645 98.1131C73.1138 99.5142 71.8814 101.343 71.2029 103.4C70.5245 105.456 70.4262 107.659 70.919 109.767C69.3594 110.383 67.9451 111.316 66.7661 112.508C65.7911 113.52 64.9871 114.684 64.3855 115.954C63.7301 117.394 63.3677 118.951 63.3195 120.532C63.2886 121.317 63.3302 122.103 63.4438 122.88C63.5801 123.673 63.7993 124.449 64.0978 125.195C63.3558 125.658 62.6747 126.211 62.0704 126.843C61.4778 127.505 60.9459 128.218 60.4812 128.975C60.2915 129.302 60.1149 129.629 59.9449 129.963C59.7748 130.296 59.6506 130.689 59.5263 131.049C59.2637 131.784 59.0646 132.542 58.9312 133.311C58.8136 134.165 58.7894 135.029 58.8592 135.888ZM93.2858 70.7301C92.8003 72.1364 91.9943 73.4104 90.9314 74.4514C89.4926 75.8313 88.0472 77.1655 86.5692 78.4539C85.5032 79.3891 84.4176 80.2916 83.2992 81.1745C82.6541 80.3169 82.1426 79.3665 81.7819 78.3558C80.8735 75.9222 80.932 73.2331 81.9454 70.8413H81.8604L93.2858 70.7301ZM89.1721 91.0041C88.4789 91.4946 87.7268 91.9786 86.9878 92.4299C86.2651 92.892 85.5185 93.3155 84.7511 93.6986L83.6327 94.248C83.2469 94.4115 82.861 94.5554 82.4817 94.6992C82.1024 94.8431 81.7296 94.9608 81.3634 95.072L80.1927 95.4056C79.9442 94.4965 79.663 93.6921 79.5387 92.9858C79.4625 92.6015 79.4122 92.2126 79.3883 91.8216C79.3883 91.4423 79.3883 91.0565 79.3883 90.651C79.5194 88.9798 80.0559 87.3658 80.9513 85.9487C81.5899 84.8523 82.4129 83.8744 83.3842 83.058L83.6262 82.8618C86.2422 80.8083 88.8255 78.5716 91.3303 76.2107C91.5946 76.5526 91.837 76.9108 92.0563 77.2832C92.9373 78.8559 93.4048 80.6265 93.4151 82.4291C93.4254 84.2318 92.9781 86.0076 92.1151 87.5903C91.4022 88.9328 90.391 90.094 89.1591 90.9845L89.1721 91.0041ZM82.207 106.478C78.937 107.341 75.667 108.198 72.397 109.205C71.8726 106.602 72.3544 103.897 73.7451 101.635C75.1359 99.3724 77.3323 97.7215 79.8919 97.0144C80.7094 96.7855 81.4811 96.5828 82.2724 96.3277C83.0759 96.0847 83.8643 95.7942 84.6334 95.4579C85.4294 95.1176 86.2027 94.7266 86.9485 94.2872C87.7279 93.8637 88.4854 93.401 89.2179 92.9007C89.665 93.8955 89.9096 94.9693 89.9373 96.0596C89.9661 96.6488 89.9244 97.2394 89.8131 97.8188C89.7359 98.4028 89.5978 98.9771 89.401 99.5323C89.2285 100.055 89.0232 100.566 88.7863 101.063C88.5497 101.515 88.2854 101.951 87.9949 102.371C87.4385 103.183 86.7665 103.91 86.0002 104.529C84.8844 105.434 83.5927 106.098 82.207 106.478ZM74.8299 120.336C73.2734 120.892 71.6842 121.487 70.1211 122.148C68.5581 122.808 66.9754 123.521 65.4385 124.325C64.7909 122.399 64.7104 120.327 65.2066 118.356C65.7029 116.385 66.7549 114.598 68.2376 113.207C69.308 112.211 70.579 111.455 71.9654 110.99C75.2354 109.964 78.5054 109.068 81.7754 108.211C82.1472 110.037 82.0277 111.929 81.4291 113.694C80.8305 115.459 79.7742 117.033 78.3681 118.256C77.3329 119.17 76.1317 119.876 74.8299 120.336ZM64.2351 144.501C64.2803 143.513 64.5415 142.546 65.0003 141.67C65.4787 140.847 66.0516 140.083 66.7072 139.394C67.2827 138.808 67.8873 138.251 68.5188 137.726C69.1728 137.203 69.8268 136.706 70.4808 136.241C71.0264 136.925 71.4998 137.664 71.8935 138.445C71.985 138.609 72.0766 138.785 72.1812 138.955C72.1812 138.955 73.208 141.022 73.2996 141.271C73.3911 141.519 73.5546 141.8 73.6723 142.095C73.927 142.702 74.1454 143.325 74.3263 143.959C75.3392 147.195 76.6895 150.317 78.355 153.271C76.3989 154.024 74.2528 154.127 72.2335 153.566C70.6081 153.12 69.1052 152.31 67.8387 151.198C67.6085 150.993 67.3901 150.774 67.1847 150.544L66.4849 149.799C64.9545 148.164 64.0912 146.241 64.2351 144.495V144.501ZM60.4223 133.848C60.5061 133.306 60.6196 132.768 60.7624 132.239C61.0357 131.197 61.4776 130.208 62.0704 129.309C62.8908 128.024 64.0135 126.96 65.3404 126.209C66.8773 125.365 68.3749 124.594 69.9184 123.92C71.4618 123.246 72.9922 122.612 74.5814 122.036C75.179 123.763 75.3319 125.611 75.0261 127.412C74.9114 128.249 74.6733 129.065 74.3198 129.832C73.9768 130.604 73.5373 131.329 73.0118 131.99C72.8156 132.232 72.6063 132.481 72.3578 132.716C72.1093 132.952 71.9327 133.174 71.7038 133.37C71.2105 133.838 70.6765 134.26 70.108 134.632C69.4279 135.066 68.7728 135.538 68.146 136.045C67.492 136.549 66.838 137.092 66.184 137.66C65.5021 138.236 64.8957 138.895 64.379 139.623C63.7424 140.492 63.207 141.431 62.7832 142.422C62.5654 142.206 62.3723 141.967 62.2077 141.709C62.0096 141.444 61.8449 141.157 61.7172 140.852C61.4346 140.166 61.1879 139.465 60.9782 138.753C60.5671 137.71 60.3457 136.603 60.3242 135.483C60.3155 134.934 60.3483 134.385 60.4223 133.841V133.848Z" fill="black"/>
<path opacity="0.2" d="M80.6896 69.9258L80.3757 70.7237C80.3628 70.7534 80.3518 70.784 80.343 70.8152V70.8545C79.9149 71.9859 79.6677 73.1777 79.6105 74.3861C79.5577 77.1985 80.4823 79.9422 82.2265 82.1491L81.8145 82.5284C82.7716 83.0305 83.8493 83.257 84.9276 83.1824C86.9288 82.7704 90.552 79.0818 93.1483 76.1453C92.9279 75.7962 92.6877 75.4599 92.4289 75.1382C93.5851 73.8804 94.4336 72.3715 94.9076 70.7302L95.0776 69.7885L80.6896 69.9258Z" fill="black"/>
<path d="M96.3792 61.2995C96.3792 61.2995 97.9554 64.9423 97.1771 67.2444C96.3988 69.5465 90.1139 78.14 84.8884 78.9575C81.6184 79.4676 77.6617 75.6875 77.0404 73.3331C76.4191 70.9787 80.1535 66.198 80.1535 66.198C80.1535 66.198 79.1529 62.6729 79.6041 60.312C80.0554 57.951 85.804 52.6079 88.3939 51.9212C90.9837 51.2345 96.4904 54.5372 96.752 57.9053C96.8707 59.0503 96.7436 60.2075 96.3792 61.2995Z" fill="#EBEBEB"/>
<path opacity="0.2" d="M80.1869 66.1979C81.4949 66.9435 83.0972 66.8519 84.5687 66.9173H85.6805C86.746 66.8709 87.7865 66.58 88.7216 66.0671C90.7643 65.1091 92.7319 63.9985 94.6076 62.7448C95.252 62.3398 95.8507 61.8661 96.393 61.3322C96.0513 62.0427 95.5863 62.6871 95.0196 63.2353C93.3551 64.901 91.4117 66.2623 89.2775 67.2574C88.1625 67.8186 86.9206 68.0801 85.674 68.016C83.7905 67.8722 81.5211 67.6694 80.1738 66.1914L80.1869 66.1979Z" fill="black"/>
<path d="M275.714 307.576C203.82 307.975 123.181 307.982 51.2871 307.576C123.181 307.171 203.82 307.177 275.714 307.576Z" fill="#263238"/>
<path d="M91.8995 171.466C91.1605 199.241 97.7528 245.185 105.032 257.074C112.311 268.964 203.066 255.328 210.045 242.837C217.023 230.345 226.395 147.915 214.708 125.732C203.021 103.548 92.5731 146.025 91.8995 171.466Z" fill="#EB9481"/>
<path d="M215.82 164.331C205.277 171.963 202.321 155.175 202.321 155.175C202.321 155.175 200.752 180.373 186.835 184.036C173.415 187.528 170.557 167.117 170.334 165.652C170.243 166.96 168.189 190.105 153.827 192.348C138.903 194.663 139.557 173.676 139.603 172.322C139.119 173.552 132.441 189.706 121.14 188.928C101.73 187.58 114.6 167.574 107.602 153.474C107.602 153.474 92.8679 175.383 92.0765 175.494C92.0765 175.494 90.2649 104.071 113.659 93.2996C125.941 87.636 134.94 96.792 134.94 96.792C134.94 96.792 138.144 83.3654 149.393 81.2464C155.168 80.1673 162.028 88.4404 162.028 88.4404C162.028 88.4404 165.043 77.7933 175.167 76.5311C183.244 75.4978 188.901 83.9736 188.901 83.9736C188.901 83.9736 196.533 75.0988 205.127 76.7207C222.438 79.9907 238.357 147.974 215.82 164.331Z" fill="#EB9481"/>
<path d="M189.005 84.6603C188.988 84.6165 188.988 84.5676 189.006 84.5239C189.023 84.4801 189.057 84.4449 189.1 84.4255C189.143 84.4061 189.192 84.404 189.236 84.4198C189.281 84.4355 189.318 84.4678 189.339 84.5099C200.032 105.588 205.316 132.03 201.588 155.515C201.464 156.28 200.162 156.417 200.136 155.515C199.319 130.604 196.631 108.564 189.005 84.6603Z" fill="#263238"/>
<path d="M162.087 88.0938C162.002 87.8388 162.434 87.6949 162.558 87.9565C173.46 109.735 178.594 139.681 171.112 166.24C170.851 167.149 169.706 167.712 169.922 166.639C173.565 148.602 169.092 109.552 162.087 88.0938Z" fill="#263238"/>
<path d="M138.412 173.964C144.599 148.223 141.918 123.076 135.45 97.6487C135.364 97.3217 135.842 97.2367 135.986 97.4918C142.526 109.068 144.978 125.705 145.796 138.811C146.554 151.368 144.723 162.846 139.328 174.186C139.099 174.618 138.275 174.54 138.412 173.964Z" fill="#263238"/>
<path d="M202.288 155.168C201.54 159.971 200.354 164.695 198.743 169.281C197.095 173.748 194.852 178.254 191.34 181.053C189.67 182.435 187.548 183.15 185.382 183.061C183.199 182.944 181.082 182.268 179.234 181.099C175.631 178.764 173.656 174.206 173.126 169.981L171.785 159.393L169.385 169.805C168.349 174.437 166.567 178.87 164.107 182.93C161.655 186.854 158.169 190.124 154.016 190.778C149.7 191.537 145.743 189.797 143.918 185.88C141.956 182.074 141.453 177.057 141.701 172.538L142.388 159.91L137.601 171.544C136.28 174.79 134.551 177.854 132.454 180.661C130.355 183.388 127.778 185.808 124.835 186.763C121.892 187.718 118.524 187.083 116.562 184.945C114.469 182.721 113.534 179.137 112.984 175.664C111.944 168.555 112.415 161.132 112.52 153.749C112.598 150.047 112.683 146.332 112.585 142.631C112.487 138.929 112.304 135.064 110.623 131.716C111.931 135.195 111.663 138.975 111.585 142.624C111.395 146.3 111.029 149.975 110.669 153.657C109.943 161.021 109.296 168.451 109.976 176.07C110.447 179.824 111.088 183.885 113.9 187.332C116.849 190.863 121.911 191.799 126.005 190.484C130.099 189.169 133.199 186.2 135.658 183.172C138.046 180.083 140.024 176.697 141.544 173.101L137.477 172.133C137.137 177.469 137.477 182.747 139.936 187.914C141.225 190.63 143.423 192.812 146.149 194.081C148.857 195.247 151.855 195.566 154.749 194.997C160.635 193.937 164.853 189.51 167.521 185.082C170.17 180.581 172.057 175.673 173.107 170.557L169.339 170.387C170.203 175.71 172.825 180.818 177.626 183.709C179.98 185.038 182.639 185.736 185.343 185.736C188.107 185.724 190.771 184.701 192.831 182.858C196.821 179.255 198.573 174.356 199.973 169.667C201.287 164.937 202.064 160.073 202.288 155.168Z" fill="#263238"/>
<path d="M214.113 229.077C214.113 229.077 272.535 142.749 227.611 136.457C214.257 134.587 157.202 142.827 158.634 154.318C160.485 169.157 184.944 170.164 200.398 168.359C200.398 168.359 176.39 194.918 189.902 217.148C198.377 231.084 214.113 229.077 214.113 229.077Z" fill="#EB9481"/>
<path d="M231.307 137.216C226.232 135.653 220.843 135.489 215.526 135.456C210.202 135.506 204.888 135.916 199.62 136.686C189.078 138.236 178.692 140.087 168.392 143.501C165.683 144.354 163.107 145.585 160.74 147.156C159.392 148.076 158.258 149.276 157.418 150.675C156.953 151.442 156.621 152.282 156.437 153.16C156.271 154.033 156.246 154.928 156.365 155.809C156.816 158.974 158.384 161.874 160.786 163.984C163.012 165.881 165.553 167.373 168.294 168.392C173.604 170.406 179.118 171.008 184.52 171.139C189.896 171.224 195.271 170.913 200.601 170.21L199.051 167.11C196.423 170.238 194.099 173.611 192.113 177.182C190.103 180.71 188.461 184.435 187.214 188.3C185.995 192.167 185.356 196.194 185.317 200.248C185.261 204.272 185.983 208.27 187.443 212.02C186.511 208.199 186.228 204.248 186.606 200.333C187.027 196.473 187.973 192.689 189.418 189.084C190.822 185.475 192.588 182.017 194.689 178.764C196.75 175.52 199.11 172.477 201.739 169.674L205.009 166.247L200.196 166.574C195.003 166.933 189.81 167.319 184.683 166.986C179.556 166.652 174.428 166.129 169.877 164.311C165.449 162.591 161.205 159.393 160.721 155.345C160.001 151.82 165.161 149.171 169.798 147.497C174.694 145.757 179.675 144.268 184.722 143.036C189.804 141.728 194.899 140.473 200.039 139.485C210.34 137.628 220.83 135.744 231.307 137.216Z" fill="#263238"/>
<path d="M97.5307 232.347L89.8789 307.576H217.396L212.981 232.34L97.5307 232.347Z" fill="#EB9481"/>
<path d="M82.4102 307.576V261.711L228.847 258.709L226.473 307.576H82.4102Z" fill="#2DD2D2"/>
<path d="M214.793 289.009C191.726 287.701 108.799 290.317 96.1702 291.193C95.5162 291.239 95.6012 292.174 96.2421 292.259C104.594 293.365 187.841 292.763 214.747 289.807C215.165 289.761 215.231 289.068 214.793 289.009Z" fill="#263238"/>
<path d="M163.938 48.5399C169.013 48.5399 173.126 44.426 173.126 39.3512C173.126 34.2764 169.013 30.1625 163.938 30.1625C158.863 30.1625 154.749 34.2764 154.749 39.3512C154.749 44.426 158.863 48.5399 163.938 48.5399Z" fill="#455A64"/>
<path d="M166.109 41.3066H161.76V60.3773H166.109V41.3066Z" fill="#455A64"/>
<path d="M85.2092 80.7887C90.284 80.7887 94.3979 76.6747 94.3979 71.6C94.3979 66.5252 90.284 62.4113 85.2092 62.4113C80.1344 62.4113 76.0205 66.5252 76.0205 71.6C76.0205 76.6747 80.1344 80.7887 85.2092 80.7887Z" fill="#455A64"/>
<path d="M88.1329 71.4482L85.0576 74.5234L98.5426 88.0084L101.618 84.9331L88.1329 71.4482Z" fill="#455A64"/>
<path d="M52.4867 159.249C57.5615 159.198 61.6343 155.043 61.5835 149.968C61.5328 144.893 57.3777 140.82 52.303 140.871C47.2282 140.922 43.1554 145.077 43.2061 150.152C43.2569 155.227 47.412 159.299 52.4867 159.249Z" fill="#455A64"/>
<path d="M54.3076 147.896V152.245H73.3783V147.896H54.3076Z" fill="#455A64"/>
<path d="M283.715 152.351C284.502 147.338 281.075 142.636 276.062 141.849C271.048 141.062 266.346 144.488 265.56 149.502C264.773 154.515 268.199 159.217 273.212 160.004C278.226 160.791 282.928 157.364 283.715 152.351Z" fill="#455A64"/>
<path d="M272.691 153.114V148.765H253.621V153.114H272.691Z" fill="#455A64"/>
<path d="M242.405 81.4034C247.479 81.4034 251.593 77.2895 251.593 72.2147C251.593 67.1399 247.479 63.026 242.405 63.026C237.33 63.026 233.216 67.1399 233.216 72.2147C233.216 77.2895 237.33 81.4034 242.405 81.4034Z" fill="#455A64"/>
<path d="M242.56 75.14L239.484 72.0647L225.999 85.5497L229.075 88.6249L242.56 75.14Z" fill="#455A64"/>
</svg>
